<svg class="main-svg" xmlns="http://www.w3.org/2000/svg" xmlns:xlink="http://www.w3.org/1999/xlink" width="400" height="430" style="" viewBox="0 0 400 430"><rect x="0" y="0" width="400" height="430" style="fill: rgb(255, 255, 255); fill-opacity: 1;"/><defs id="defs-f2dc88"><g class="clips"><clipPath id="clipf2dc88xyplot" class="plotclip"><rect width="224" height="202"/></clipPath><clipPath class="axesclip" id="clipf2dc88x"><rect x="96" y="0" width="224" height="430"/></clipPath><clipPath class="axesclip" id="clipf2dc88y"><rect x="0" y="125" width="400" height="202"/></clipPath><clipPath class="axesclip" id="clipf2dc88xy"><rect x="96" y="125" width="224" height="202"/></clipPath></g><g class="gradients"/><g class="patterns"/></defs><g class="bglayer"><rect class="bg" x="96" y="125" width="224" height="202" style="fill: rgb(0, 0, 0); fill-opacity: 0; stroke-width: 0;"/></g><g class="layer-below"><g class="imagelayer"/><g class="shapelayer"/></g><g class="cartesianlayer"><g class="subplot xy"><g class="layer-subplot"><g class="shapelayer"/><g class="imagelayer"/></g><g class="minor-gridlayer"><g class="x"/><g class="y"/></g><g class="gridlayer"><g class="x"><path class="xgrid crisp" transform="translate(116.58,0)" d="M0,125v202" style="stroke: rgb(235, 240, 248); stroke-opacity: 1; stroke-width: 1px;"/><path class="xgrid crisp" transform="translate(136.89,0)" d="M0,125v202" style="stroke: rgb(235, 240, 248); stroke-opacity: 1; stroke-width: 1px;"/><path class="xgrid crisp" transform="translate(157.21,0)" d="M0,125v202" style="stroke: rgb(235, 240, 248); stroke-opacity: 1; stroke-width: 1px;"/><path class="xgrid crisp" transform="translate(177.53,0)" d="M0,125v202" style="stroke: rgb(235, 240, 248); stroke-opacity: 1; stroke-width: 1px;"/><path class="xgrid crisp" transform="translate(197.84,0)" d="M0,125v202" style="stroke: rgb(235, 240, 248); stroke-opacity: 1; stroke-width: 1px;"/><path class="xgrid crisp" transform="translate(218.16,0)" d="M0,125v202" style="stroke: rgb(235, 240, 248); stroke-opacity: 1; stroke-width: 1px;"/><path class="xgrid crisp" transform="translate(238.48,0)" d="M0,125v202" style="stroke: rgb(235, 240, 248); stroke-opacity: 1; stroke-width: 1px;"/><path class="xgrid crisp" transform="translate(258.78999999999996,0)" d="M0,125v202" style="stroke: rgb(235, 240, 248); stroke-opacity: 1; stroke-width: 1px;"/><path class="xgrid crisp" transform="translate(279.11,0)" d="M0,125v202" style="stroke: rgb(235, 240, 248); stroke-opacity: 1; stroke-width: 1px;"/><path class="xgrid crisp" transform="translate(299.43,0)" d="M0,125v202" style="stroke: rgb(235, 240, 248); stroke-opacity: 1; stroke-width: 1px;"/></g><g class="y"><path class="ygrid crisp" transform="translate(0,307.53)" d="M96,0h224" style="stroke: rgb(235, 240, 248); stroke-opacity: 1; stroke-width: 1px;"/><path class="ygrid crisp" transform="translate(0,289.40999999999997)" d="M96,0h224" style="stroke: rgb(235, 240, 248); stroke-opacity: 1; stroke-width: 1px;"/><path class="ygrid crisp" transform="translate(0,271.28999999999996)" d="M96,0h224" style="stroke: rgb(235, 240, 248); stroke-opacity: 1; stroke-width: 1px;"/><path class="ygrid crisp" transform="translate(0,253.18)" d="M96,0h224" style="stroke: rgb(235, 240, 248); stroke-opacity: 1; stroke-width: 1px;"/><path class="ygrid crisp" transform="translate(0,235.06)" d="M96,0h224" style="stroke: rgb(235, 240, 248); stroke-opacity: 1; stroke-width: 1px;"/><path class="ygrid crisp" transform="translate(0,216.94)" d="M96,0h224" style="stroke: rgb(235, 240, 248); stroke-opacity: 1; stroke-width: 1px;"/><path class="ygrid crisp" transform="translate(0,198.82999999999998)" d="M96,0h224" style="stroke: rgb(235, 240, 248); stroke-opacity: 1; stroke-width: 1px;"/><path class="ygrid crisp" transform="translate(0,180.71)" d="M96,0h224" style="stroke: rgb(235, 240, 248); stroke-opacity: 1; stroke-width: 1px;"/><path class="ygrid crisp" transform="translate(0,162.59)" d="M96,0h224" style="stroke: rgb(235, 240, 248); stroke-opacity: 1; stroke-width: 1px;"/><path class="ygrid crisp" transform="translate(0,144.47)" d="M96,0h224" style="stroke: rgb(235, 240, 248); stroke-opacity: 1; stroke-width: 1px;"/></g></g><g class="zerolinelayer"/><path class="xlines-below"/><path class="ylines-below"/><g class="overlines-below"/><g class="xaxislayer-below"/><g class="yaxislayer-below"/><g class="overaxes-below"/><g class="plot" transform="translate(96,125)" clip-path="url(#clipf2dc88xyplot)"><g class="scatterlayer mlayer"><g class="trace scatter tracebf431c" style="stroke-miterlimit: 2; opacity: 1;"><g class="fills"/><g class="errorbars"/><g class="lines"/><g class="points"><path class="point" transform="translate(20.58,182.53)" d="M7.5,0A7.5,7.5 0 1,1 0,-7.5A7.5,7.5 0 0,1 7.5,0ZM0,0.5L0.5,0L0,-0.5L-0.5,0Z" style="opacity: 1; stroke-width: 2px; fill: rgb(136, 196, 8); fill-opacity: 1; stroke: rgb(20, 75, 57); stroke-opacity: 1;"/><path class="point" transform="translate(40.89,182.53)" d="M7.5,0A7.5,7.5 0 1,1 0,-7.5A7.5,7.5 0 0,1 7.5,0ZM0,0.5L0.5,0L0,-0.5L-0.5,0Z" style="opacity: 1; stroke-width: 2px; fill: rgb(136, 196, 8); fill-opacity: 1; stroke: rgb(20, 75, 57); stroke-opacity: 1;"/><path class="point" transform="translate(20.58,164.41)" d="M7.5,0A7.5,7.5 0 1,1 0,-7.5A7.5,7.5 0 0,1 7.5,0ZM0,0.5L0.5,0L0,-0.5L-0.5,0Z" style="opacity: 1; stroke-width: 2px; fill: rgb(136, 196, 8); fill-opacity: 1; stroke: rgb(20, 75, 57); stroke-opacity: 1;"/><path class="point" transform="translate(40.89,164.41)" d="M7.5,0A7.5,7.5 0 1,1 0,-7.5A7.5,7.5 0 0,1 7.5,0ZM0,0.5L0.5,0L0,-0.5L-0.5,0Z" style="opacity: 1; stroke-width: 2px; fill: rgb(136, 196, 8); fill-opacity: 1; stroke: rgb(20, 75, 57); stroke-opacity: 1;"/><path class="point" transform="translate(20.58,146.29)" d="M7.5,0A7.5,7.5 0 1,1 0,-7.5A7.5,7.5 0 0,1 7.5,0ZM0,0.5L0.5,0L0,-0.5L-0.5,0Z" style="opacity: 1; stroke-width: 2px; fill: rgb(136, 196, 8); fill-opacity: 1; stroke: rgb(20, 75, 57); stroke-opacity: 1;"/><path class="point" transform="translate(61.21,146.29)" d="M7.5,0A7.5,7.5 0 1,1 0,-7.5A7.5,7.5 0 0,1 7.5,0ZM0,0.5L0.5,0L0,-0.5L-0.5,0Z" style="opacity: 1; stroke-width: 2px; fill: rgb(136, 196, 8); fill-opacity: 1; stroke: rgb(20, 75, 57); stroke-opacity: 1;"/><path class="point" transform="translate(40.89,146.29)" d="M7.5,0A7.5,7.5 0 1,1 0,-7.5A7.5,7.5 0 0,1 7.5,0ZM0,0.5L0.5,0L0,-0.5L-0.5,0Z" style="opacity: 1; stroke-width: 2px; fill: rgb(136, 196, 8); fill-opacity: 1; stroke: rgb(20, 75, 57); stroke-opacity: 1;"/><path class="point" transform="translate(61.21,128.18)" d="M7.5,0A7.5,7.5 0 1,1 0,-7.5A7.5,7.5 0 0,1 7.5,0ZM0,0.5L0.5,0L0,-0.5L-0.5,0Z" style="opacity: 1; stroke-width: 2px; fill: rgb(136, 196, 8); fill-opacity: 1; stroke: rgb(20, 75, 57); stroke-opacity: 1;"/><path class="point" transform="translate(40.89,128.18)" d="M7.5,0A7.5,7.5 0 1,1 0,-7.5A7.5,7.5 0 0,1 7.5,0ZM0,0.5L0.5,0L0,-0.5L-0.5,0Z" style="opacity: 1; stroke-width: 2px; fill: rgb(136, 196, 8); fill-opacity: 1; stroke: rgb(20, 75, 57); stroke-opacity: 1;"/><path class="point" transform="translate(101.84,110.06)" d="M7.5,0A7.5,7.5 0 1,1 0,-7.5A7.5,7.5 0 0,1 7.5,0ZM0,0.5L0.5,0L0,-0.5L-0.5,0Z" style="opacity: 1; stroke-width: 2px; fill: rgb(136, 196, 8); fill-opacity: 1; stroke: rgb(20, 75, 57); stroke-opacity: 1;"/><path class="point" transform="translate(61.21,110.06)" d="M7.5,0A7.5,7.5 0 1,1 0,-7.5A7.5,7.5 0 0,1 7.5,0ZM0,0.5L0.5,0L0,-0.5L-0.5,0Z" style="opacity: 1; stroke-width: 2px; fill: rgb(136, 196, 8); fill-opacity: 1; stroke: rgb(20, 75, 57); stroke-opacity: 1;"/><path class="point" transform="translate(142.48,55.71)" d="M7.5,0A7.5,7.5 0 1,1 0,-7.5A7.5,7.5 0 0,1 7.5,0ZM0,0.5L0.5,0L0,-0.5L-0.5,0Z" style="opacity: 1; stroke-width: 2px; fill: rgb(136, 196, 8); fill-opacity: 1; stroke: rgb(20, 75, 57); stroke-opacity: 1;"/></g><g class="text"/></g><g class="trace scatter trace45721a" style="stroke-miterlimit: 2; opacity: 1;"><g class="fills"/><g class="errorbars"/><g class="lines"/><g class="points"><path class="point" transform="translate(61.21,164.41)" d="M7.5,0A7.5,7.5 0 1,1 0,-7.5A7.5,7.5 0 0,1 7.5,0ZM0,0.5L0.5,0L0,-0.5L-0.5,0Z" style="opacity: 1; stroke-width: 2px; fill: rgb(166, 147, 99); fill-opacity: 1; stroke: rgb(20, 75, 57); stroke-opacity: 1;"/><path class="point" transform="translate(81.53,110.06)" d="M7.5,0A7.5,7.5 0 1,1 0,-7.5A7.5,7.5 0 0,1 7.5,0ZM0,0.5L0.5,0L0,-0.5L-0.5,0Z" style="opacity: 1; stroke-width: 2px; fill: rgb(166, 147, 99); fill-opacity: 1; stroke: rgb(20, 75, 57); stroke-opacity: 1;"/></g><g class="text"/></g><g class="trace scatter tracee4c9e8" style="stroke-miterlimit: 2; opacity: 1;"><g class="fills"/><g class="errorbars"/><g class="lines"/><g class="points"><path class="point" transform="translate(81.53,146.29)" d="M7.5,0A7.5,7.5 0 1,1 0,-7.5A7.5,7.5 0 0,1 7.5,0ZM0,0.5L0.5,0L0,-0.5L-0.5,0Z" style="opacity: 1; stroke-width: 2px; fill: rgb(255, 214, 2); fill-opacity: 1; stroke: rgb(20, 75, 57); stroke-opacity: 1;"/><path class="point" transform="translate(81.53,128.18)" d="M7.5,0A7.5,7.5 0 1,1 0,-7.5A7.5,7.5 0 0,1 7.5,0ZM0,0.5L0.5,0L0,-0.5L-0.5,0Z" style="opacity: 1; stroke-width: 2px; fill: rgb(255, 214, 2); fill-opacity: 1; stroke: rgb(20, 75, 57); stroke-opacity: 1;"/></g><g class="text"/></g><g class="trace scatter trace818421" style="stroke-miterlimit: 2; opacity: 1;"><g class="fills"/><g class="errorbars"/><g class="lines"/><g class="points"><path class="point" transform="translate(203.43,182.53)" d="M0,10.5V-10.5M10.5,0H-10.5" style="opacity: 1; stroke-width: 2px; fill: rgb(128, 130, 133); fill-opacity: 1; stroke: rgb(20, 75, 57); stroke-opacity: 1;"/><path class="point" transform="translate(183.11,182.53)" d="M0,10.5V-10.5M10.5,0H-10.5" style="opacity: 1; stroke-width: 2px; fill: rgb(128, 130, 133); fill-opacity: 1; stroke: rgb(20, 75, 57); stroke-opacity: 1;"/><path class="point" transform="translate(162.79,182.53)" d="M0,10.5V-10.5M10.5,0H-10.5" style="opacity: 1; stroke-width: 2px; fill: rgb(128, 130, 133); fill-opacity: 1; stroke: rgb(20, 75, 57); stroke-opacity: 1;"/><path class="point" transform="translate(142.48,182.53)" d="M0,10.5V-10.5M10.5,0H-10.5" style="opacity: 1; stroke-width: 2px; fill: rgb(128, 130, 133); fill-opacity: 1; stroke: rgb(20, 75, 57); stroke-opacity: 1;"/><path class="point" transform="translate(122.16,182.53)" d="M0,10.5V-10.5M10.5,0H-10.5" style="opacity: 1; stroke-width: 2px; fill: rgb(128, 130, 133); fill-opacity: 1; stroke: rgb(20, 75, 57); stroke-opacity: 1;"/><path class="point" transform="translate(101.84,182.53)" d="M0,10.5V-10.5M10.5,0H-10.5" style="opacity: 1; stroke-width: 2px; fill: rgb(128, 130, 133); fill-opacity: 1; stroke: rgb(20, 75, 57); stroke-opacity: 1;"/><path class="point" transform="translate(81.53,182.53)" d="M0,10.5V-10.5M10.5,0H-10.5" style="opacity: 1; stroke-width: 2px; fill: rgb(128, 130, 133); fill-opacity: 1; stroke: rgb(20, 75, 57); stroke-opacity: 1;"/><path class="point" transform="translate(61.21,182.53)" d="M0,10.5V-10.5M10.5,0H-10.5" style="opacity: 1; stroke-width: 2px; fill: rgb(128, 130, 133); fill-opacity: 1; stroke: rgb(20, 75, 57); stroke-opacity: 1;"/><path class="point" transform="translate(203.43,164.41)" d="M0,10.5V-10.5M10.5,0H-10.5" style="opacity: 1; stroke-width: 2px; fill: rgb(128, 130, 133); fill-opacity: 1; stroke: rgb(20, 75, 57); stroke-opacity: 1;"/><path class="point" transform="translate(183.11,164.41)" d="M0,10.5V-10.5M10.5,0H-10.5" style="opacity: 1; stroke-width: 2px; fill: rgb(128, 130, 133); fill-opacity: 1; stroke: rgb(20, 75, 57); stroke-opacity: 1;"/><path class="point" transform="translate(162.79,164.41)" d="M0,10.5V-10.5M10.5,0H-10.5" style="opacity: 1; stroke-width: 2px; fill: rgb(128, 130, 133); fill-opacity: 1; stroke: rgb(20, 75, 57); stroke-opacity: 1;"/><path class="point" transform="translate(142.48,164.41)" d="M0,10.5V-10.5M10.5,0H-10.5" style="opacity: 1; stroke-width: 2px; fill: rgb(128, 130, 133); fill-opacity: 1; stroke: rgb(20, 75, 57); stroke-opacity: 1;"/><path class="point" transform="translate(122.16,164.41)" d="M0,10.5V-10.5M10.5,0H-10.5" style="opacity: 1; stroke-width: 2px; fill: rgb(128, 130, 133); fill-opacity: 1; stroke: rgb(20, 75, 57); stroke-opacity: 1;"/><path class="point" transform="translate(101.84,164.41)" d="M0,10.5V-10.5M10.5,0H-10.5" style="opacity: 1; stroke-width: 2px; fill: rgb(128, 130, 133); fill-opacity: 1; stroke: rgb(20, 75, 57); stroke-opacity: 1;"/><path class="point" transform="translate(81.53,164.41)" d="M0,10.5V-10.5M10.5,0H-10.5" style="opacity: 1; stroke-width: 2px; fill: rgb(128, 130, 133); fill-opacity: 1; stroke: rgb(20, 75, 57); stroke-opacity: 1;"/><path class="point" transform="translate(203.43,146.29)" d="M0,10.5V-10.5M10.5,0H-10.5" style="opacity: 1; stroke-width: 2px; fill: rgb(128, 130, 133); fill-opacity: 1; stroke: rgb(20, 75, 57); stroke-opacity: 1;"/><path class="point" transform="translate(183.11,146.29)" d="M0,10.5V-10.5M10.5,0H-10.5" style="opacity: 1; stroke-width: 2px; fill: rgb(128, 130, 133); fill-opacity: 1; stroke: rgb(20, 75, 57); stroke-opacity: 1;"/><path class="point" transform="translate(162.79,146.29)" d="M0,10.5V-10.5M10.5,0H-10.5" style="opacity: 1; stroke-width: 2px; fill: rgb(128, 130, 133); fill-opacity: 1; stroke: rgb(20, 75, 57); stroke-opacity: 1;"/><path class="point" transform="translate(142.48,146.29)" d="M0,10.5V-10.5M10.5,0H-10.5" style="opacity: 1; stroke-width: 2px; fill: rgb(128, 130, 133); fill-opacity: 1; stroke: rgb(20, 75, 57); stroke-opacity: 1;"/><path class="point" transform="translate(122.16,146.29)" d="M0,10.5V-10.5M10.5,0H-10.5" style="opacity: 1; stroke-width: 2px; fill: rgb(128, 130, 133); fill-opacity: 1; stroke: rgb(20, 75, 57); stroke-opacity: 1;"/><path class="point" transform="translate(101.84,146.29)" d="M0,10.5V-10.5M10.5,0H-10.5" style="opacity: 1; stroke-width: 2px; fill: rgb(128, 130, 133); fill-opacity: 1; stroke: rgb(20, 75, 57); stroke-opacity: 1;"/><path class="point" transform="translate(20.58,128.18)" d="M0,10.5V-10.5M10.5,0H-10.5" style="opacity: 1; stroke-width: 2px; fill: rgb(128, 130, 133); fill-opacity: 1; stroke: rgb(20, 75, 57); stroke-opacity: 1;"/><path class="point" transform="translate(203.43,128.18)" d="M0,10.5V-10.5M10.5,0H-10.5" style="opacity: 1; stroke-width: 2px; fill: rgb(128, 130, 133); fill-opacity: 1; stroke: rgb(20, 75, 57); stroke-opacity: 1;"/><path class="point" transform="translate(183.11,128.18)" d="M0,10.5V-10.5M10.5,0H-10.5" style="opacity: 1; stroke-width: 2px; fill: rgb(128, 130, 133); fill-opacity: 1; stroke: rgb(20, 75, 57); stroke-opacity: 1;"/><path class="point" transform="translate(162.79,128.18)" d="M0,10.5V-10.5M10.5,0H-10.5" style="opacity: 1; stroke-width: 2px; fill: rgb(128, 130, 133); fill-opacity: 1; stroke: rgb(20, 75, 57); stroke-opacity: 1;"/><path class="point" transform="translate(142.48,128.18)" d="M0,10.5V-10.5M10.5,0H-10.5" style="opacity: 1; stroke-width: 2px; fill: rgb(128, 130, 133); fill-opacity: 1; stroke: rgb(20, 75, 57); stroke-opacity: 1;"/><path class="point" transform="translate(122.16,128.18)" d="M0,10.5V-10.5M10.5,0H-10.5" style="opacity: 1; stroke-width: 2px; fill: rgb(128, 130, 133); fill-opacity: 1; stroke: rgb(20, 75, 57); stroke-opacity: 1;"/><path class="point" transform="translate(101.84,128.18)" d="M0,10.5V-10.5M10.5,0H-10.5" style="opacity: 1; stroke-width: 2px; fill: rgb(128, 130, 133); fill-opacity: 1; stroke: rgb(20, 75, 57); stroke-opacity: 1;"/><path class="point" transform="translate(20.58,110.06)" d="M0,10.5V-10.5M10.5,0H-10.5" style="opacity: 1; stroke-width: 2px; fill: rgb(128, 130, 133); fill-opacity: 1; stroke: rgb(20, 75, 57); stroke-opacity: 1;"/><path class="point" transform="translate(203.43,110.06)" d="M0,10.5V-10.5M10.5,0H-10.5" style="opacity: 1; stroke-width: 2px; fill: rgb(128, 130, 133); fill-opacity: 1; stroke: rgb(20, 75, 57); stroke-opacity: 1;"/><path class="point" transform="translate(183.11,110.06)" d="M0,10.5V-10.5M10.5,0H-10.5" style="opacity: 1; stroke-width: 2px; fill: rgb(128, 130, 133); fill-opacity: 1; stroke: rgb(20, 75, 57); stroke-opacity: 1;"/><path class="point" transform="translate(162.79,110.06)" d="M0,10.5V-10.5M10.5,0H-10.5" style="opacity: 1; stroke-width: 2px; fill: rgb(128, 130, 133); fill-opacity: 1; stroke: rgb(20, 75, 57); stroke-opacity: 1;"/><path class="point" transform="translate(142.48,110.06)" d="M0,10.5V-10.5M10.5,0H-10.5" style="opacity: 1; stroke-width: 2px; fill: rgb(128, 130, 133); fill-opacity: 1; stroke: rgb(20, 75, 57); stroke-opacity: 1;"/><path class="point" transform="translate(122.16,110.06)" d="M0,10.5V-10.5M10.5,0H-10.5" style="opacity: 1; stroke-width: 2px; fill: rgb(128, 130, 133); fill-opacity: 1; stroke: rgb(20, 75, 57); stroke-opacity: 1;"/><path class="point" transform="translate(40.89,110.06)" d="M0,10.5V-10.5M10.5,0H-10.5" style="opacity: 1; stroke-width: 2px; fill: rgb(128, 130, 133); fill-opacity: 1; stroke: rgb(20, 75, 57); stroke-opacity: 1;"/><path class="point" transform="translate(20.58,91.94)" d="M0,10.5V-10.5M10.5,0H-10.5" style="opacity: 1; stroke-width: 2px; fill: rgb(128, 130, 133); fill-opacity: 1; stroke: rgb(20, 75, 57); stroke-opacity: 1;"/><path class="point" transform="translate(203.43,91.94)" d="M0,10.5V-10.5M10.5,0H-10.5" style="opacity: 1; stroke-width: 2px; fill: rgb(128, 130, 133); fill-opacity: 1; stroke: rgb(20, 75, 57); stroke-opacity: 1;"/><path class="point" transform="translate(183.11,91.94)" d="M0,10.5V-10.5M10.5,0H-10.5" style="opacity: 1; stroke-width: 2px; fill: rgb(128, 130, 133); fill-opacity: 1; stroke: rgb(20, 75, 57); stroke-opacity: 1;"/><path class="point" transform="translate(162.79,91.94)" d="M0,10.5V-10.5M10.5,0H-10.5" style="opacity: 1; stroke-width: 2px; fill: rgb(128, 130, 133); fill-opacity: 1; stroke: rgb(20, 75, 57); stroke-opacity: 1;"/><path class="point" transform="translate(142.48,91.94)" d="M0,10.5V-10.5M10.5,0H-10.5" style="opacity: 1; stroke-width: 2px; fill: rgb(128, 130, 133); fill-opacity: 1; stroke: rgb(20, 75, 57); stroke-opacity: 1;"/><path class="point" transform="translate(122.16,91.94)" d="M0,10.5V-10.5M10.5,0H-10.5" style="opacity: 1; stroke-width: 2px; fill: rgb(128, 130, 133); fill-opacity: 1; stroke: rgb(20, 75, 57); stroke-opacity: 1;"/><path class="point" transform="translate(101.84,91.94)" d="M0,10.5V-10.5M10.5,0H-10.5" style="opacity: 1; stroke-width: 2px; fill: rgb(128, 130, 133); fill-opacity: 1; stroke: rgb(20, 75, 57); stroke-opacity: 1;"/><path class="point" transform="translate(81.53,91.94)" d="M0,10.5V-10.5M10.5,0H-10.5" style="opacity: 1; stroke-width: 2px; fill: rgb(128, 130, 133); fill-opacity: 1; stroke: rgb(20, 75, 57); stroke-opacity: 1;"/><path class="point" transform="translate(61.21,91.94)" d="M0,10.5V-10.5M10.5,0H-10.5" style="opacity: 1; stroke-width: 2px; fill: rgb(128, 130, 133); fill-opacity: 1; stroke: rgb(20, 75, 57); stroke-opacity: 1;"/><path class="point" transform="translate(40.89,91.94)" d="M0,10.5V-10.5M10.5,0H-10.5" style="opacity: 1; stroke-width: 2px; fill: rgb(128, 130, 133); fill-opacity: 1; stroke: rgb(20, 75, 57); stroke-opacity: 1;"/><path class="point" transform="translate(20.58,73.83)" d="M0,10.5V-10.5M10.5,0H-10.5" style="opacity: 1; stroke-width: 2px; fill: rgb(128, 130, 133); fill-opacity: 1; stroke: rgb(20, 75, 57); stroke-opacity: 1;"/><path class="point" transform="translate(203.43,73.83)" d="M0,10.5V-10.5M10.5,0H-10.5" style="opacity: 1; stroke-width: 2px; fill: rgb(128, 130, 133); fill-opacity: 1; stroke: rgb(20, 75, 57); stroke-opacity: 1;"/><path class="point" transform="translate(183.11,73.83)" d="M0,10.5V-10.5M10.5,0H-10.5" style="opacity: 1; stroke-width: 2px; fill: rgb(128, 130, 133); fill-opacity: 1; stroke: rgb(20, 75, 57); stroke-opacity: 1;"/><path class="point" transform="translate(162.79,73.83)" d="M0,10.5V-10.5M10.5,0H-10.5" style="opacity: 1; stroke-width: 2px; fill: rgb(128, 130, 133); fill-opacity: 1; stroke: rgb(20, 75, 57); stroke-opacity: 1;"/><path class="point" transform="translate(142.48,73.83)" d="M0,10.5V-10.5M10.5,0H-10.5" style="opacity: 1; stroke-width: 2px; fill: rgb(128, 130, 133); fill-opacity: 1; stroke: rgb(20, 75, 57); stroke-opacity: 1;"/><path class="point" transform="translate(122.16,73.83)" d="M0,10.5V-10.5M10.5,0H-10.5" style="opacity: 1; stroke-width: 2px; fill: rgb(128, 130, 133); fill-opacity: 1; stroke: rgb(20, 75, 57); stroke-opacity: 1;"/><path class="point" transform="translate(101.84,73.83)" d="M0,10.5V-10.5M10.5,0H-10.5" style="opacity: 1; stroke-width: 2px; fill: rgb(128, 130, 133); fill-opacity: 1; stroke: rgb(20, 75, 57); stroke-opacity: 1;"/><path class="point" transform="translate(81.53,73.83)" d="M0,10.5V-10.5M10.5,0H-10.5" style="opacity: 1; stroke-width: 2px; fill: rgb(128, 130, 133); fill-opacity: 1; stroke: rgb(20, 75, 57); stroke-opacity: 1;"/><path class="point" transform="translate(61.21,73.83)" d="M0,10.5V-10.5M10.5,0H-10.5" style="opacity: 1; stroke-width: 2px; fill: rgb(128, 130, 133); fill-opacity: 1; stroke: rgb(20, 75, 57); stroke-opacity: 1;"/><path class="point" transform="translate(40.89,73.83)" d="M0,10.5V-10.5M10.5,0H-10.5" style="opacity: 1; stroke-width: 2px; fill: rgb(128, 130, 133); fill-opacity: 1; stroke: rgb(20, 75, 57); stroke-opacity: 1;"/><path class="point" transform="translate(20.58,55.71)" d="M0,10.5V-10.5M10.5,0H-10.5" style="opacity: 1; stroke-width: 2px; fill: rgb(128, 130, 133); fill-opacity: 1; stroke: rgb(20, 75, 57); stroke-opacity: 1;"/><path class="point" transform="translate(203.43,55.71)" d="M0,10.5V-10.5M10.5,0H-10.5" style="opacity: 1; stroke-width: 2px; fill: rgb(128, 130, 133); fill-opacity: 1; stroke: rgb(20, 75, 57); stroke-opacity: 1;"/><path class="point" transform="translate(183.11,55.71)" d="M0,10.5V-10.5M10.5,0H-10.5" style="opacity: 1; stroke-width: 2px; fill: rgb(128, 130, 133); fill-opacity: 1; stroke: rgb(20, 75, 57); stroke-opacity: 1;"/><path class="point" transform="translate(162.79,55.71)" d="M0,10.5V-10.5M10.5,0H-10.5" style="opacity: 1; stroke-width: 2px; fill: rgb(128, 130, 133); fill-opacity: 1; stroke: rgb(20, 75, 57); stroke-opacity: 1;"/><path class="point" transform="translate(122.16,55.71)" d="M0,10.5V-10.5M10.5,0H-10.5" style="opacity: 1; stroke-width: 2px; fill: rgb(128, 130, 133); fill-opacity: 1; stroke: rgb(20, 75, 57); stroke-opacity: 1;"/><path class="point" transform="translate(101.84,55.71)" d="M0,10.5V-10.5M10.5,0H-10.5" style="opacity: 1; stroke-width: 2px; fill: rgb(128, 130, 133); fill-opacity: 1; stroke: rgb(20, 75, 57); stroke-opacity: 1;"/><path class="point" transform="translate(81.53,55.71)" d="M0,10.5V-10.5M10.5,0H-10.5" style="opacity: 1; stroke-width: 2px; fill: rgb(128, 130, 133); fill-opacity: 1; stroke: rgb(20, 75, 57); stroke-opacity: 1;"/><path class="point" transform="translate(61.21,55.71)" d="M0,10.5V-10.5M10.5,0H-10.5" style="opacity: 1; stroke-width: 2px; fill: rgb(128, 130, 133); fill-opacity: 1; stroke: rgb(20, 75, 57); stroke-opacity: 1;"/><path class="point" transform="translate(40.89,55.71)" d="M0,10.5V-10.5M10.5,0H-10.5" style="opacity: 1; stroke-width: 2px; fill: rgb(128, 130, 133); fill-opacity: 1; stroke: rgb(20, 75, 57); stroke-opacity: 1;"/><path class="point" transform="translate(20.58,37.59)" d="M0,10.5V-10.5M10.5,0H-10.5" style="opacity: 1; stroke-width: 2px; fill: rgb(128, 130, 133); fill-opacity: 1; stroke: rgb(20, 75, 57); stroke-opacity: 1;"/><path class="point" transform="translate(203.43,37.59)" d="M0,10.5V-10.5M10.5,0H-10.5" style="opacity: 1; stroke-width: 2px; fill: rgb(128, 130, 133); fill-opacity: 1; stroke: rgb(20, 75, 57); stroke-opacity: 1;"/><path class="point" transform="translate(183.11,37.59)" d="M0,10.5V-10.5M10.5,0H-10.5" style="opacity: 1; stroke-width: 2px; fill: rgb(128, 130, 133); fill-opacity: 1; stroke: rgb(20, 75, 57); stroke-opacity: 1;"/><path class="point" transform="translate(162.79,37.59)" d="M0,10.5V-10.5M10.5,0H-10.5" style="opacity: 1; stroke-width: 2px; fill: rgb(128, 130, 133); fill-opacity: 1; stroke: rgb(20, 75, 57); stroke-opacity: 1;"/><path class="point" transform="translate(142.48,37.59)" d="M0,10.5V-10.5M10.5,0H-10.5" style="opacity: 1; stroke-width: 2px; fill: rgb(128, 130, 133); fill-opacity: 1; stroke: rgb(20, 75, 57); stroke-opacity: 1;"/><path class="point" transform="translate(122.16,37.59)" d="M0,10.5V-10.5M10.5,0H-10.5" style="opacity: 1; stroke-width: 2px; fill: rgb(128, 130, 133); fill-opacity: 1; stroke: rgb(20, 75, 57); stroke-opacity: 1;"/><path class="point" transform="translate(101.84,37.59)" d="M0,10.5V-10.5M10.5,0H-10.5" style="opacity: 1; stroke-width: 2px; fill: rgb(128, 130, 133); fill-opacity: 1; stroke: rgb(20, 75, 57); stroke-opacity: 1;"/><path class="point" transform="translate(81.53,37.59)" d="M0,10.5V-10.5M10.5,0H-10.5" style="opacity: 1; stroke-width: 2px; fill: rgb(128, 130, 133); fill-opacity: 1; stroke: rgb(20, 75, 57); stroke-opacity: 1;"/><path class="point" transform="translate(61.21,37.59)" d="M0,10.5V-10.5M10.5,0H-10.5" style="opacity: 1; stroke-width: 2px; fill: rgb(128, 130, 133); fill-opacity: 1; stroke: rgb(20, 75, 57); stroke-opacity: 1;"/><path class="point" transform="translate(40.89,37.59)" d="M0,10.5V-10.5M10.5,0H-10.5" style="opacity: 1; stroke-width: 2px; fill: rgb(128, 130, 133); fill-opacity: 1; stroke: rgb(20, 75, 57); stroke-opacity: 1;"/><path class="point" transform="translate(20.58,19.47)" d="M0,10.5V-10.5M10.5,0H-10.5" style="opacity: 1; stroke-width: 2px; fill: rgb(128, 130, 133); fill-opacity: 1; stroke: rgb(20, 75, 57); stroke-opacity: 1;"/><path class="point" transform="translate(203.43,19.47)" d="M0,10.5V-10.5M10.5,0H-10.5" style="opacity: 1; stroke-width: 2px; fill: rgb(128, 130, 133); fill-opacity: 1; stroke: rgb(20, 75, 57); stroke-opacity: 1;"/><path class="point" transform="translate(183.11,19.47)" d="M0,10.5V-10.5M10.5,0H-10.5" style="opacity: 1; stroke-width: 2px; fill: rgb(128, 130, 133); fill-opacity: 1; stroke: rgb(20, 75, 57); stroke-opacity: 1;"/><path class="point" transform="translate(162.79,19.47)" d="M0,10.5V-10.5M10.5,0H-10.5" style="opacity: 1; stroke-width: 2px; fill: rgb(128, 130, 133); fill-opacity: 1; stroke: rgb(20, 75, 57); stroke-opacity: 1;"/><path class="point" transform="translate(142.48,19.47)" d="M0,10.5V-10.5M10.5,0H-10.5" style="opacity: 1; stroke-width: 2px; fill: rgb(128, 130, 133); fill-opacity: 1; stroke: rgb(20, 75, 57); stroke-opacity: 1;"/><path class="point" transform="translate(122.16,19.47)" d="M0,10.5V-10.5M10.5,0H-10.5" style="opacity: 1; stroke-width: 2px; fill: rgb(128, 130, 133); fill-opacity: 1; stroke: rgb(20, 75, 57); stroke-opacity: 1;"/><path class="point" transform="translate(101.84,19.47)" d="M0,10.5V-10.5M10.5,0H-10.5" style="opacity: 1; stroke-width: 2px; fill: rgb(128, 130, 133); fill-opacity: 1; stroke: rgb(20, 75, 57); stroke-opacity: 1;"/><path class="point" transform="translate(81.53,19.47)" d="M0,10.5V-10.5M10.5,0H-10.5" style="opacity: 1; stroke-width: 2px; fill: rgb(128, 130, 133); fill-opacity: 1; stroke: rgb(20, 75, 57); stroke-opacity: 1;"/><path class="point" transform="translate(61.21,19.47)" d="M0,10.5V-10.5M10.5,0H-10.5" style="opacity: 1; stroke-width: 2px; fill: rgb(128, 130, 133); fill-opacity: 1; stroke: rgb(20, 75, 57); stroke-opacity: 1;"/><path class="point" transform="translate(40.89,19.47)" d="M0,10.5V-10.5M10.5,0H-10.5" style="opacity: 1; stroke-width: 2px; fill: rgb(128, 130, 133); fill-opacity: 1; stroke: rgb(20, 75, 57); stroke-opacity: 1;"/></g><g class="text"/></g></g></g><g class="overplot"/><path class="xlines-above crisp" d="M94,328H322M94,124H322" style="fill: none; stroke-width: 2px; stroke: rgb(0, 0, 0); stroke-opacity: 1;"/><path class="ylines-above crisp" d="M95,125V327M321,125V327" style="fill: none; stroke-width: 2px; stroke: rgb(0, 0, 0); stroke-opacity: 1;"/><g class="overlines-above"/><g class="xaxislayer-above"><g class="xtick"><text text-anchor="start" x="0" y="345.8" transform="translate(116.58,0) rotate(90,0,338.8)" style="font-family: Arial; font-size: 14px; fill: rgb(42, 63, 95); fill-opacity: 1; white-space: pre; opacity: 1;">100_90</text></g><g class="xtick"><text text-anchor="start" x="0" y="345.8" transform="translate(136.89,0) rotate(90,0,338.8)" style="font-family: Arial; font-size: 14px; fill: rgb(42, 63, 95); fill-opacity: 1; white-space: pre; opacity: 1;">90_80</text></g><g class="xtick"><text text-anchor="start" x="0" y="345.8" transform="translate(157.21,0) rotate(90,0,338.8)" style="font-family: Arial; font-size: 14px; fill: rgb(42, 63, 95); fill-opacity: 1; white-space: pre; opacity: 1;">80_70</text></g><g class="xtick"><text text-anchor="start" x="0" y="345.8" transform="translate(177.53,0) rotate(90,0,338.8)" style="font-family: Arial; font-size: 14px; fill: rgb(42, 63, 95); fill-opacity: 1; white-space: pre; opacity: 1;">70_60</text></g><g class="xtick"><text text-anchor="start" x="0" y="345.8" transform="translate(197.84,0) rotate(90,0,338.8)" style="font-family: Arial; font-size: 14px; fill: rgb(42, 63, 95); fill-opacity: 1; white-space: pre; opacity: 1;">60_50</text></g><g class="xtick"><text text-anchor="start" x="0" y="345.8" transform="translate(218.16,0) rotate(90,0,338.8)" style="font-family: Arial; font-size: 14px; fill: rgb(42, 63, 95); fill-opacity: 1; white-space: pre; opacity: 1;">50_40</text></g><g class="xtick"><text text-anchor="start" x="0" y="345.8" transform="translate(238.48,0) rotate(90,0,338.8)" style="font-family: Arial; font-size: 14px; fill: rgb(42, 63, 95); fill-opacity: 1; white-space: pre; opacity: 1;">40_30</text></g><g class="xtick"><text text-anchor="start" x="0" y="345.8" transform="translate(258.78999999999996,0) rotate(90,0,338.8)" style="font-family: Arial; font-size: 14px; fill: rgb(42, 63, 95); fill-opacity: 1; white-space: pre; opacity: 1;">30_20</text></g><g class="xtick"><text text-anchor="start" x="0" y="345.8" transform="translate(279.11,0) rotate(90,0,338.8)" style="font-family: Arial; font-size: 14px; fill: rgb(42, 63, 95); fill-opacity: 1; white-space: pre; opacity: 1;">20_10</text></g><g class="xtick"><text text-anchor="start" x="0" y="345.8" transform="translate(299.43,0) rotate(90,0,338.8)" style="font-family: Arial; font-size: 14px; fill: rgb(42, 63, 95); fill-opacity: 1; white-space: pre; opacity: 1;">10_0</text></g></g><g class="yaxislayer-above"><g class="ytick"><text text-anchor="end" x="91.2" y="4.8999999999999995" transform="translate(0,307.53)" style="font-family: Arial; font-size: 14px; fill: rgb(42, 63, 95); fill-opacity: 1; white-space: pre; opacity: 1;">100_90</text></g><g class="ytick"><text text-anchor="end" x="91.2" y="4.8999999999999995" transform="translate(0,289.40999999999997)" style="font-family: Arial; font-size: 14px; fill: rgb(42, 63, 95); fill-opacity: 1; white-space: pre; opacity: 1;">90_80</text></g><g class="ytick"><text text-anchor="end" x="91.2" y="4.8999999999999995" transform="translate(0,271.28999999999996)" style="font-family: Arial; font-size: 14px; fill: rgb(42, 63, 95); fill-opacity: 1; white-space: pre; opacity: 1;">80_70</text></g><g class="ytick"><text text-anchor="end" x="91.2" y="4.8999999999999995" transform="translate(0,253.18)" style="font-family: Arial; font-size: 14px; fill: rgb(42, 63, 95); fill-opacity: 1; white-space: pre; opacity: 1;">70_60</text></g><g class="ytick"><text text-anchor="end" x="91.2" y="4.8999999999999995" transform="translate(0,235.06)" style="font-family: Arial; font-size: 14px; fill: rgb(42, 63, 95); fill-opacity: 1; white-space: pre; opacity: 1;">60_50</text></g><g class="ytick"><text text-anchor="end" x="91.2" y="4.8999999999999995" transform="translate(0,216.94)" style="font-family: Arial; font-size: 14px; fill: rgb(42, 63, 95); fill-opacity: 1; white-space: pre; opacity: 1;">50_40</text></g><g class="ytick"><text text-anchor="end" x="91.2" y="4.8999999999999995" transform="translate(0,198.82999999999998)" style="font-family: Arial; font-size: 14px; fill: rgb(42, 63, 95); fill-opacity: 1; white-space: pre; opacity: 1;">40_30</text></g><g class="ytick"><text text-anchor="end" x="91.2" y="4.8999999999999995" transform="translate(0,180.71)" style="font-family: Arial; font-size: 14px; fill: rgb(42, 63, 95); fill-opacity: 1; white-space: pre; opacity: 1;">30_20</text></g><g class="ytick"><text text-anchor="end" x="91.2" y="4.8999999999999995" transform="translate(0,162.59)" style="font-family: Arial; font-size: 14px; fill: rgb(42, 63, 95); fill-opacity: 1; white-space: pre; opacity: 1;">20_10</text></g><g class="ytick"><text text-anchor="end" x="91.2" y="4.8999999999999995" transform="translate(0,144.47)" style="font-family: Arial; font-size: 14px; fill: rgb(42, 63, 95); fill-opacity: 1; white-space: pre; opacity: 1;">10_0</text></g></g><g class="overaxes-above"/></g></g><g class="polarlayer"/><g class="smithlayer"/><g class="ternarylayer"/><g class="geolayer"/><g class="funnelarealayer"/><g class="pielayer"/><g class="iciclelayer"/><g class="treemaplayer"/><g class="sunburstlayer"/><g class="glimages"/><defs id="topdefs-f2dc88"><g class="clips"/><clipPath id="legendf2dc88"><rect width="87" height="105" x="2" y="2"/></clipPath></defs><g class="layer-above"><g class="imagelayer"/><g class="shapelayer"/></g><g class="infolayer"><g class="legend" pointer-events="all" transform="translate(229,11.959999999999994)"><rect class="bg" shape-rendering="crispEdges" style="stroke: rgb(0, 0, 0); stroke-opacity: 1; fill: rgb(0, 0, 0); fill-opacity: 0; stroke-width: 2px;" width="89" height="107" x="1" y="1"/><g class="scrollbox" transform="" clip-path="url(#legendf2dc88)"><text class="legendtitletext" text-anchor="start" x="4" y="20.2" style="font-family: 'Times New Roman'; font-size: 14px; fill: rgb(42, 63, 95); fill-opacity: 1; white-space: pre;">Enrichment</text><g class="groups" transform=""><g class="traces" transform="translate(2,34.7)" style="opacity: 1;"><text class="legendtext" text-anchor="start" x="40" y="4.680000000000001" style="font-family: Arial; font-size: 12px; fill: rgb(42, 63, 95); fill-opacity: 1; white-space: pre;">***</text><g class="layers" style="opacity: 1;"><g class="legendfill"/><g class="legendlines"/><g class="legendsymbols"><g class="legendpoints"><path class="scatterpts" transform="translate(20,0)" d="M7.5,0A7.5,7.5 0 1,1 0,-7.5A7.5,7.5 0 0,1 7.5,0ZM0,0.5L0.5,0L0,-0.5L-0.5,0Z" style="opacity: 1; stroke-width: 2px; fill: rgb(136, 196, 8); fill-opacity: 1; stroke: rgb(20, 75, 57); stroke-opacity: 1;"/></g></g></g><rect class="legendtoggle" x="0" y="-9.5" width="58" height="19" style="fill: rgb(0, 0, 0); fill-opacity: 0;"/></g></g><g class="groups" transform=""><g class="traces" transform="translate(2,53.7)" style="opacity: 1;"><text class="legendtext" text-anchor="start" x="40" y="4.680000000000001" style="font-family: Arial; font-size: 12px; fill: rgb(42, 63, 95); fill-opacity: 1; white-space: pre;">**</text><g class="layers" style="opacity: 1;"><g class="legendfill"/><g class="legendlines"/><g class="legendsymbols"><g class="legendpoints"><path class="scatterpts" transform="translate(20,0)" d="M7.5,0A7.5,7.5 0 1,1 0,-7.5A7.5,7.5 0 0,1 7.5,0ZM0,0.5L0.5,0L0,-0.5L-0.5,0Z" style="opacity: 1; stroke-width: 2px; fill: rgb(166, 147, 99); fill-opacity: 1; stroke: rgb(20, 75, 57); stroke-opacity: 1;"/></g></g></g><rect class="legendtoggle" x="0" y="-9.5" width="58" height="19" style="fill: rgb(0, 0, 0); fill-opacity: 0;"/></g></g><g class="groups" transform=""><g class="traces" transform="translate(2,72.7)" style="opacity: 1;"><text class="legendtext" text-anchor="start" x="40" y="4.680000000000001" style="font-family: Arial; font-size: 12px; fill: rgb(42, 63, 95); fill-opacity: 1; white-space: pre;">*</text><g class="layers" style="opacity: 1;"><g class="legendfill"/><g class="legendlines"/><g class="legendsymbols"><g class="legendpoints"><path class="scatterpts" transform="translate(20,0)" d="M7.5,0A7.5,7.5 0 1,1 0,-7.5A7.5,7.5 0 0,1 7.5,0ZM0,0.5L0.5,0L0,-0.5L-0.5,0Z" style="opacity: 1; stroke-width: 2px; fill: rgb(255, 214, 2); fill-opacity: 1; stroke: rgb(20, 75, 57); stroke-opacity: 1;"/></g></g></g><rect class="legendtoggle" x="0" y="-9.5" width="58" height="19" style="fill: rgb(0, 0, 0); fill-opacity: 0;"/></g></g><g class="groups" transform=""><g class="traces" transform="translate(2,91.7)" style="opacity: 1;"><text class="legendtext" text-anchor="start" x="40" y="4.680000000000001" style="font-family: Arial; font-size: 12px; fill: rgb(42, 63, 95); fill-opacity: 1; white-space: pre;">NE</text><g class="layers" style="opacity: 1;"><g class="legendfill"/><g class="legendlines"/><g class="legendsymbols"><g class="legendpoints"><path class="scatterpts" transform="translate(20,0)" d="M0,10.5V-10.5M10.5,0H-10.5" style="opacity: 1; stroke-width: 2px; fill: rgb(128, 130, 133); fill-opacity: 1; stroke: rgb(20, 75, 57); stroke-opacity: 1;"/></g></g></g><rect class="legendtoggle" x="0" y="-9.5" width="58" height="19" style="fill: rgb(0, 0, 0); fill-opacity: 0;"/></g></g></g><rect class="scrollbar" rx="20" ry="3" width="0" height="0" style="fill: rgb(128, 139, 164); fill-opacity: 1;" x="0" y="0"/></g><g class="g-gtitle"><text class="gtitle" x="20" y="62.5" text-anchor="start" dy="0em" style="font-family: Arial; font-size: 20px; fill: rgb(42, 63, 95); opacity: 1; font-weight: normal; white-space: pre;">wk-Shell Enrichment</text></g><g class="g-xtitle"><text class="xtitle" x="208" y="417.6998046875" text-anchor="middle" style="font-family: Arial; font-size: 17px; fill: rgb(42, 63, 95); opacity: 1; font-weight: normal; white-space: pre;">VTTSHI-HSV</text></g><g class="g-ytitle" transform="translate(3.712890625,0)"><text class="ytitle" transform="rotate(-90,12.287499999999994,226)" x="12.287499999999994" y="226" text-anchor="middle" style="font-family: Arial; font-size: 17px; fill: rgb(42, 63, 95); opacity: 1; font-weight: normal; white-space: pre;">VTTSHI-HPV</text></g></g></svg>