<svg class="main-svg" xmlns="http://www.w3.org/2000/svg" xmlns:xlink="http://www.w3.org/1999/xlink" width="445" height="405" style="" viewBox="0 0 445 405"><rect x="0" y="0" width="445" height="405" style="fill: rgb(255, 255, 255); fill-opacity: 1;"/><defs id="defs-5f0571"><g class="clips"><clipPath id="clip5f0571xyplot" class="plotclip"><rect width="225" height="242"/></clipPath><clipPath class="axesclip" id="clip5f0571x"><rect x="96" y="0" width="225" height="405"/></clipPath><clipPath class="axesclip" id="clip5f0571y"><rect x="0" y="60" width="445" height="242"/></clipPath><clipPath class="axesclip" id="clip5f0571xy"><rect x="96" y="60" width="225" height="242"/></clipPath></g><g class="gradients"/><g class="patterns"/></defs><g class="bglayer"><rect class="bg" x="96" y="60" width="225" height="242" style="fill: rgb(0, 0, 0); fill-opacity: 0; stroke-width: 0;"/></g><g class="layer-below"><g class="imagelayer"/><g class="shapelayer"/></g><g class="cartesianlayer"><g class="subplot xy"><g class="layer-subplot"><g class="shapelayer"/><g class="imagelayer"/></g><g class="minor-gridlayer"><g class="x"/><g class="y"/></g><g class="gridlayer"><g class="x"><path class="xgrid crisp" transform="translate(116.63,0)" d="M0,60v242" style="stroke: rgb(235, 240, 248); stroke-opacity: 1; stroke-width: 1px;"/><path class="xgrid crisp" transform="translate(137.04,0)" d="M0,60v242" style="stroke: rgb(235, 240, 248); stroke-opacity: 1; stroke-width: 1px;"/><path class="xgrid crisp" transform="translate(157.46,0)" d="M0,60v242" style="stroke: rgb(235, 240, 248); stroke-opacity: 1; stroke-width: 1px;"/><path class="xgrid crisp" transform="translate(177.88,0)" d="M0,60v242" style="stroke: rgb(235, 240, 248); stroke-opacity: 1; stroke-width: 1px;"/><path class="xgrid crisp" transform="translate(198.29000000000002,0)" d="M0,60v242" style="stroke: rgb(235, 240, 248); stroke-opacity: 1; stroke-width: 1px;"/><path class="xgrid crisp" transform="translate(218.70999999999998,0)" d="M0,60v242" style="stroke: rgb(235, 240, 248); stroke-opacity: 1; stroke-width: 1px;"/><path class="xgrid crisp" transform="translate(239.13,0)" d="M0,60v242" style="stroke: rgb(235, 240, 248); stroke-opacity: 1; stroke-width: 1px;"/><path class="xgrid crisp" transform="translate(259.53999999999996,0)" d="M0,60v242" style="stroke: rgb(235, 240, 248); stroke-opacity: 1; stroke-width: 1px;"/><path class="xgrid crisp" transform="translate(279.96000000000004,0)" d="M0,60v242" style="stroke: rgb(235, 240, 248); stroke-opacity: 1; stroke-width: 1px;"/><path class="xgrid crisp" transform="translate(300.38,0)" d="M0,60v242" style="stroke: rgb(235, 240, 248); stroke-opacity: 1; stroke-width: 1px;"/></g><g class="y"><path class="ygrid crisp" transform="translate(0,280.52)" d="M96,0h225" style="stroke: rgb(235, 240, 248); stroke-opacity: 1; stroke-width: 1px;"/><path class="ygrid crisp" transform="translate(0,258.40999999999997)" d="M96,0h225" style="stroke: rgb(235, 240, 248); stroke-opacity: 1; stroke-width: 1px;"/><path class="ygrid crisp" transform="translate(0,236.29)" d="M96,0h225" style="stroke: rgb(235, 240, 248); stroke-opacity: 1; stroke-width: 1px;"/><path class="ygrid crisp" transform="translate(0,214.17)" d="M96,0h225" style="stroke: rgb(235, 240, 248); stroke-opacity: 1; stroke-width: 1px;"/><path class="ygrid crisp" transform="translate(0,192.06)" d="M96,0h225" style="stroke: rgb(235, 240, 248); stroke-opacity: 1; stroke-width: 1px;"/><path class="ygrid crisp" transform="translate(0,169.94)" d="M96,0h225" style="stroke: rgb(235, 240, 248); stroke-opacity: 1; stroke-width: 1px;"/><path class="ygrid crisp" transform="translate(0,147.82)" d="M96,0h225" style="stroke: rgb(235, 240, 248); stroke-opacity: 1; stroke-width: 1px;"/><path class="ygrid crisp" transform="translate(0,125.71)" d="M96,0h225" style="stroke: rgb(235, 240, 248); stroke-opacity: 1; stroke-width: 1px;"/><path class="ygrid crisp" transform="translate(0,103.59)" d="M96,0h225" style="stroke: rgb(235, 240, 248); stroke-opacity: 1; stroke-width: 1px;"/><path class="ygrid crisp" transform="translate(0,81.47)" d="M96,0h225" style="stroke: rgb(235, 240, 248); stroke-opacity: 1; stroke-width: 1px;"/></g></g><g class="zerolinelayer"/><path class="xlines-below"/><path class="ylines-below"/><g class="overlines-below"/><g class="xaxislayer-below"/><g class="yaxislayer-below"/><g class="overaxes-below"/><g class="plot" transform="translate(96,60)" clip-path="url(#clip5f0571xyplot)"><g class="scatterlayer mlayer"><g class="trace scatter trace46acd7" style="stroke-miterlimit: 2; opacity: 1;"><g class="fills"/><g class="errorbars"/><g class="lines"/><g class="points"><path class="point" transform="translate(20.63,220.52)" d="M7.5,0A7.5,7.5 0 1,1 0,-7.5A7.5,7.5 0 0,1 7.5,0ZM0,0.5L0.5,0L0,-0.5L-0.5,0Z" style="opacity: 1; stroke-width: 2px; fill: rgb(136, 196, 8); fill-opacity: 1; stroke: rgb(20, 75, 57); stroke-opacity: 1;"/><path class="point" transform="translate(41.04,220.52)" d="M7.5,0A7.5,7.5 0 1,1 0,-7.5A7.5,7.5 0 0,1 7.5,0ZM0,0.5L0.5,0L0,-0.5L-0.5,0Z" style="opacity: 1; stroke-width: 2px; fill: rgb(136, 196, 8); fill-opacity: 1; stroke: rgb(20, 75, 57); stroke-opacity: 1;"/><path class="point" transform="translate(20.63,198.41)" d="M7.5,0A7.5,7.5 0 1,1 0,-7.5A7.5,7.5 0 0,1 7.5,0ZM0,0.5L0.5,0L0,-0.5L-0.5,0Z" style="opacity: 1; stroke-width: 2px; fill: rgb(136, 196, 8); fill-opacity: 1; stroke: rgb(20, 75, 57); stroke-opacity: 1;"/><path class="point" transform="translate(41.04,198.41)" d="M7.5,0A7.5,7.5 0 1,1 0,-7.5A7.5,7.5 0 0,1 7.5,0ZM0,0.5L0.5,0L0,-0.5L-0.5,0Z" style="opacity: 1; stroke-width: 2px; fill: rgb(136, 196, 8); fill-opacity: 1; stroke: rgb(20, 75, 57); stroke-opacity: 1;"/><path class="point" transform="translate(20.63,176.29)" d="M7.5,0A7.5,7.5 0 1,1 0,-7.5A7.5,7.5 0 0,1 7.5,0ZM0,0.5L0.5,0L0,-0.5L-0.5,0Z" style="opacity: 1; stroke-width: 2px; fill: rgb(136, 196, 8); fill-opacity: 1; stroke: rgb(20, 75, 57); stroke-opacity: 1;"/><path class="point" transform="translate(61.46,176.29)" d="M7.5,0A7.5,7.5 0 1,1 0,-7.5A7.5,7.5 0 0,1 7.5,0ZM0,0.5L0.5,0L0,-0.5L-0.5,0Z" style="opacity: 1; stroke-width: 2px; fill: rgb(136, 196, 8); fill-opacity: 1; stroke: rgb(20, 75, 57); stroke-opacity: 1;"/><path class="point" transform="translate(41.04,176.29)" d="M7.5,0A7.5,7.5 0 1,1 0,-7.5A7.5,7.5 0 0,1 7.5,0ZM0,0.5L0.5,0L0,-0.5L-0.5,0Z" style="opacity: 1; stroke-width: 2px; fill: rgb(136, 196, 8); fill-opacity: 1; stroke: rgb(20, 75, 57); stroke-opacity: 1;"/><path class="point" transform="translate(61.46,154.17)" d="M7.5,0A7.5,7.5 0 1,1 0,-7.5A7.5,7.5 0 0,1 7.5,0ZM0,0.5L0.5,0L0,-0.5L-0.5,0Z" style="opacity: 1; stroke-width: 2px; fill: rgb(136, 196, 8); fill-opacity: 1; stroke: rgb(20, 75, 57); stroke-opacity: 1;"/><path class="point" transform="translate(41.04,154.17)" d="M7.5,0A7.5,7.5 0 1,1 0,-7.5A7.5,7.5 0 0,1 7.5,0ZM0,0.5L0.5,0L0,-0.5L-0.5,0Z" style="opacity: 1; stroke-width: 2px; fill: rgb(136, 196, 8); fill-opacity: 1; stroke: rgb(20, 75, 57); stroke-opacity: 1;"/><path class="point" transform="translate(102.29,132.06)" d="M7.5,0A7.5,7.5 0 1,1 0,-7.5A7.5,7.5 0 0,1 7.5,0ZM0,0.5L0.5,0L0,-0.5L-0.5,0Z" style="opacity: 1; stroke-width: 2px; fill: rgb(136, 196, 8); fill-opacity: 1; stroke: rgb(20, 75, 57); stroke-opacity: 1;"/><path class="point" transform="translate(61.46,132.06)" d="M7.5,0A7.5,7.5 0 1,1 0,-7.5A7.5,7.5 0 0,1 7.5,0ZM0,0.5L0.5,0L0,-0.5L-0.5,0Z" style="opacity: 1; stroke-width: 2px; fill: rgb(136, 196, 8); fill-opacity: 1; stroke: rgb(20, 75, 57); stroke-opacity: 1;"/><path class="point" transform="translate(143.13,65.71)" d="M7.5,0A7.5,7.5 0 1,1 0,-7.5A7.5,7.5 0 0,1 7.5,0ZM0,0.5L0.5,0L0,-0.5L-0.5,0Z" style="opacity: 1; stroke-width: 2px; fill: rgb(136, 196, 8); fill-opacity: 1; stroke: rgb(20, 75, 57); stroke-opacity: 1;"/></g><g class="text"/></g><g class="trace scatter tracec3a814" style="stroke-miterlimit: 2; opacity: 1;"><g class="fills"/><g class="errorbars"/><g class="lines"/><g class="points"><path class="point" transform="translate(61.46,198.41)" d="M7.5,0A7.5,7.5 0 1,1 0,-7.5A7.5,7.5 0 0,1 7.5,0ZM0,0.5L0.5,0L0,-0.5L-0.5,0Z" style="opacity: 1; stroke-width: 2px; fill: rgb(166, 147, 99); fill-opacity: 1; stroke: rgb(20, 75, 57); stroke-opacity: 1;"/><path class="point" transform="translate(81.88,132.06)" d="M7.5,0A7.5,7.5 0 1,1 0,-7.5A7.5,7.5 0 0,1 7.5,0ZM0,0.5L0.5,0L0,-0.5L-0.5,0Z" style="opacity: 1; stroke-width: 2px; fill: rgb(166, 147, 99); fill-opacity: 1; stroke: rgb(20, 75, 57); stroke-opacity: 1;"/></g><g class="text"/></g><g class="trace scatter tracec17b2c" style="stroke-miterlimit: 2; opacity: 1;"><g class="fills"/><g class="errorbars"/><g class="lines"/><g class="points"><path class="point" transform="translate(81.88,176.29)" d="M7.5,0A7.5,7.5 0 1,1 0,-7.5A7.5,7.5 0 0,1 7.5,0ZM0,0.5L0.5,0L0,-0.5L-0.5,0Z" style="opacity: 1; stroke-width: 2px; fill: rgb(255, 214, 2); fill-opacity: 1; stroke: rgb(20, 75, 57); stroke-opacity: 1;"/><path class="point" transform="translate(81.88,154.17)" d="M7.5,0A7.5,7.5 0 1,1 0,-7.5A7.5,7.5 0 0,1 7.5,0ZM0,0.5L0.5,0L0,-0.5L-0.5,0Z" style="opacity: 1; stroke-width: 2px; fill: rgb(255, 214, 2); fill-opacity: 1; stroke: rgb(20, 75, 57); stroke-opacity: 1;"/></g><g class="text"/></g><g class="trace scatter trace9770b1" style="stroke-miterlimit: 2; opacity: 1;"><g class="fills"/><g class="errorbars"/><g class="lines"/><g class="points"><path class="point" transform="translate(204.38,220.52)" d="M0,10.5V-10.5M10.5,0H-10.5" style="opacity: 1; stroke-width: 2px; fill: rgb(128, 130, 133); fill-opacity: 1; stroke: rgb(20, 75, 57); stroke-opacity: 1;"/><path class="point" transform="translate(183.96,220.52)" d="M0,10.5V-10.5M10.5,0H-10.5" style="opacity: 1; stroke-width: 2px; fill: rgb(128, 130, 133); fill-opacity: 1; stroke: rgb(20, 75, 57); stroke-opacity: 1;"/><path class="point" transform="translate(163.54,220.52)" d="M0,10.5V-10.5M10.5,0H-10.5" style="opacity: 1; stroke-width: 2px; fill: rgb(128, 130, 133); fill-opacity: 1; stroke: rgb(20, 75, 57); stroke-opacity: 1;"/><path class="point" transform="translate(143.13,220.52)" d="M0,10.5V-10.5M10.5,0H-10.5" style="opacity: 1; stroke-width: 2px; fill: rgb(128, 130, 133); fill-opacity: 1; stroke: rgb(20, 75, 57); stroke-opacity: 1;"/><path class="point" transform="translate(122.71,220.52)" d="M0,10.5V-10.5M10.5,0H-10.5" style="opacity: 1; stroke-width: 2px; fill: rgb(128, 130, 133); fill-opacity: 1; stroke: rgb(20, 75, 57); stroke-opacity: 1;"/><path class="point" transform="translate(102.29,220.52)" d="M0,10.5V-10.5M10.5,0H-10.5" style="opacity: 1; stroke-width: 2px; fill: rgb(128, 130, 133); fill-opacity: 1; stroke: rgb(20, 75, 57); stroke-opacity: 1;"/><path class="point" transform="translate(81.88,220.52)" d="M0,10.5V-10.5M10.5,0H-10.5" style="opacity: 1; stroke-width: 2px; fill: rgb(128, 130, 133); fill-opacity: 1; stroke: rgb(20, 75, 57); stroke-opacity: 1;"/><path class="point" transform="translate(61.46,220.52)" d="M0,10.5V-10.5M10.5,0H-10.5" style="opacity: 1; stroke-width: 2px; fill: rgb(128, 130, 133); fill-opacity: 1; stroke: rgb(20, 75, 57); stroke-opacity: 1;"/><path class="point" transform="translate(204.38,198.41)" d="M0,10.5V-10.5M10.5,0H-10.5" style="opacity: 1; stroke-width: 2px; fill: rgb(128, 130, 133); fill-opacity: 1; stroke: rgb(20, 75, 57); stroke-opacity: 1;"/><path class="point" transform="translate(183.96,198.41)" d="M0,10.5V-10.5M10.5,0H-10.5" style="opacity: 1; stroke-width: 2px; fill: rgb(128, 130, 133); fill-opacity: 1; stroke: rgb(20, 75, 57); stroke-opacity: 1;"/><path class="point" transform="translate(163.54,198.41)" d="M0,10.5V-10.5M10.5,0H-10.5" style="opacity: 1; stroke-width: 2px; fill: rgb(128, 130, 133); fill-opacity: 1; stroke: rgb(20, 75, 57); stroke-opacity: 1;"/><path class="point" transform="translate(143.13,198.41)" d="M0,10.5V-10.5M10.5,0H-10.5" style="opacity: 1; stroke-width: 2px; fill: rgb(128, 130, 133); fill-opacity: 1; stroke: rgb(20, 75, 57); stroke-opacity: 1;"/><path class="point" transform="translate(122.71,198.41)" d="M0,10.5V-10.5M10.5,0H-10.5" style="opacity: 1; stroke-width: 2px; fill: rgb(128, 130, 133); fill-opacity: 1; stroke: rgb(20, 75, 57); stroke-opacity: 1;"/><path class="point" transform="translate(102.29,198.41)" d="M0,10.5V-10.5M10.5,0H-10.5" style="opacity: 1; stroke-width: 2px; fill: rgb(128, 130, 133); fill-opacity: 1; stroke: rgb(20, 75, 57); stroke-opacity: 1;"/><path class="point" transform="translate(81.88,198.41)" d="M0,10.5V-10.5M10.5,0H-10.5" style="opacity: 1; stroke-width: 2px; fill: rgb(128, 130, 133); fill-opacity: 1; stroke: rgb(20, 75, 57); stroke-opacity: 1;"/><path class="point" transform="translate(204.38,176.29)" d="M0,10.5V-10.5M10.5,0H-10.5" style="opacity: 1; stroke-width: 2px; fill: rgb(128, 130, 133); fill-opacity: 1; stroke: rgb(20, 75, 57); stroke-opacity: 1;"/><path class="point" transform="translate(183.96,176.29)" d="M0,10.5V-10.5M10.5,0H-10.5" style="opacity: 1; stroke-width: 2px; fill: rgb(128, 130, 133); fill-opacity: 1; stroke: rgb(20, 75, 57); stroke-opacity: 1;"/><path class="point" transform="translate(163.54,176.29)" d="M0,10.5V-10.5M10.5,0H-10.5" style="opacity: 1; stroke-width: 2px; fill: rgb(128, 130, 133); fill-opacity: 1; stroke: rgb(20, 75, 57); stroke-opacity: 1;"/><path class="point" transform="translate(143.13,176.29)" d="M0,10.5V-10.5M10.5,0H-10.5" style="opacity: 1; stroke-width: 2px; fill: rgb(128, 130, 133); fill-opacity: 1; stroke: rgb(20, 75, 57); stroke-opacity: 1;"/><path class="point" transform="translate(122.71,176.29)" d="M0,10.5V-10.5M10.5,0H-10.5" style="opacity: 1; stroke-width: 2px; fill: rgb(128, 130, 133); fill-opacity: 1; stroke: rgb(20, 75, 57); stroke-opacity: 1;"/><path class="point" transform="translate(102.29,176.29)" d="M0,10.5V-10.5M10.5,0H-10.5" style="opacity: 1; stroke-width: 2px; fill: rgb(128, 130, 133); fill-opacity: 1; stroke: rgb(20, 75, 57); stroke-opacity: 1;"/><path class="point" transform="translate(20.63,154.17)" d="M0,10.5V-10.5M10.5,0H-10.5" style="opacity: 1; stroke-width: 2px; fill: rgb(128, 130, 133); fill-opacity: 1; stroke: rgb(20, 75, 57); stroke-opacity: 1;"/><path class="point" transform="translate(204.38,154.17)" d="M0,10.5V-10.5M10.5,0H-10.5" style="opacity: 1; stroke-width: 2px; fill: rgb(128, 130, 133); fill-opacity: 1; stroke: rgb(20, 75, 57); stroke-opacity: 1;"/><path class="point" transform="translate(183.96,154.17)" d="M0,10.5V-10.5M10.5,0H-10.5" style="opacity: 1; stroke-width: 2px; fill: rgb(128, 130, 133); fill-opacity: 1; stroke: rgb(20, 75, 57); stroke-opacity: 1;"/><path class="point" transform="translate(163.54,154.17)" d="M0,10.5V-10.5M10.5,0H-10.5" style="opacity: 1; stroke-width: 2px; fill: rgb(128, 130, 133); fill-opacity: 1; stroke: rgb(20, 75, 57); stroke-opacity: 1;"/><path class="point" transform="translate(143.13,154.17)" d="M0,10.5V-10.5M10.5,0H-10.5" style="opacity: 1; stroke-width: 2px; fill: rgb(128, 130, 133); fill-opacity: 1; stroke: rgb(20, 75, 57); stroke-opacity: 1;"/><path class="point" transform="translate(122.71,154.17)" d="M0,10.5V-10.5M10.5,0H-10.5" style="opacity: 1; stroke-width: 2px; fill: rgb(128, 130, 133); fill-opacity: 1; stroke: rgb(20, 75, 57); stroke-opacity: 1;"/><path class="point" transform="translate(102.29,154.17)" d="M0,10.5V-10.5M10.5,0H-10.5" style="opacity: 1; stroke-width: 2px; fill: rgb(128, 130, 133); fill-opacity: 1; stroke: rgb(20, 75, 57); stroke-opacity: 1;"/><path class="point" transform="translate(20.63,132.06)" d="M0,10.5V-10.5M10.5,0H-10.5" style="opacity: 1; stroke-width: 2px; fill: rgb(128, 130, 133); fill-opacity: 1; stroke: rgb(20, 75, 57); stroke-opacity: 1;"/><path class="point" transform="translate(204.38,132.06)" d="M0,10.5V-10.5M10.5,0H-10.5" style="opacity: 1; stroke-width: 2px; fill: rgb(128, 130, 133); fill-opacity: 1; stroke: rgb(20, 75, 57); stroke-opacity: 1;"/><path class="point" transform="translate(183.96,132.06)" d="M0,10.5V-10.5M10.5,0H-10.5" style="opacity: 1; stroke-width: 2px; fill: rgb(128, 130, 133); fill-opacity: 1; stroke: rgb(20, 75, 57); stroke-opacity: 1;"/><path class="point" transform="translate(163.54,132.06)" d="M0,10.5V-10.5M10.5,0H-10.5" style="opacity: 1; stroke-width: 2px; fill: rgb(128, 130, 133); fill-opacity: 1; stroke: rgb(20, 75, 57); stroke-opacity: 1;"/><path class="point" transform="translate(143.13,132.06)" d="M0,10.5V-10.5M10.5,0H-10.5" style="opacity: 1; stroke-width: 2px; fill: rgb(128, 130, 133); fill-opacity: 1; stroke: rgb(20, 75, 57); stroke-opacity: 1;"/><path class="point" transform="translate(122.71,132.06)" d="M0,10.5V-10.5M10.5,0H-10.5" style="opacity: 1; stroke-width: 2px; fill: rgb(128, 130, 133); fill-opacity: 1; stroke: rgb(20, 75, 57); stroke-opacity: 1;"/><path class="point" transform="translate(41.04,132.06)" d="M0,10.5V-10.5M10.5,0H-10.5" style="opacity: 1; stroke-width: 2px; fill: rgb(128, 130, 133); fill-opacity: 1; stroke: rgb(20, 75, 57); stroke-opacity: 1;"/><path class="point" transform="translate(20.63,109.94)" d="M0,10.5V-10.5M10.5,0H-10.5" style="opacity: 1; stroke-width: 2px; fill: rgb(128, 130, 133); fill-opacity: 1; stroke: rgb(20, 75, 57); stroke-opacity: 1;"/><path class="point" transform="translate(204.38,109.94)" d="M0,10.5V-10.5M10.5,0H-10.5" style="opacity: 1; stroke-width: 2px; fill: rgb(128, 130, 133); fill-opacity: 1; stroke: rgb(20, 75, 57); stroke-opacity: 1;"/><path class="point" transform="translate(183.96,109.94)" d="M0,10.5V-10.5M10.5,0H-10.5" style="opacity: 1; stroke-width: 2px; fill: rgb(128, 130, 133); fill-opacity: 1; stroke: rgb(20, 75, 57); stroke-opacity: 1;"/><path class="point" transform="translate(163.54,109.94)" d="M0,10.5V-10.5M10.5,0H-10.5" style="opacity: 1; stroke-width: 2px; fill: rgb(128, 130, 133); fill-opacity: 1; stroke: rgb(20, 75, 57); stroke-opacity: 1;"/><path class="point" transform="translate(143.13,109.94)" d="M0,10.5V-10.5M10.5,0H-10.5" style="opacity: 1; stroke-width: 2px; fill: rgb(128, 130, 133); fill-opacity: 1; stroke: rgb(20, 75, 57); stroke-opacity: 1;"/><path class="point" transform="translate(122.71,109.94)" d="M0,10.5V-10.5M10.5,0H-10.5" style="opacity: 1; stroke-width: 2px; fill: rgb(128, 130, 133); fill-opacity: 1; stroke: rgb(20, 75, 57); stroke-opacity: 1;"/><path class="point" transform="translate(102.29,109.94)" d="M0,10.5V-10.5M10.5,0H-10.5" style="opacity: 1; stroke-width: 2px; fill: rgb(128, 130, 133); fill-opacity: 1; stroke: rgb(20, 75, 57); stroke-opacity: 1;"/><path class="point" transform="translate(81.88,109.94)" d="M0,10.5V-10.5M10.5,0H-10.5" style="opacity: 1; stroke-width: 2px; fill: rgb(128, 130, 133); fill-opacity: 1; stroke: rgb(20, 75, 57); stroke-opacity: 1;"/><path class="point" transform="translate(61.46,109.94)" d="M0,10.5V-10.5M10.5,0H-10.5" style="opacity: 1; stroke-width: 2px; fill: rgb(128, 130, 133); fill-opacity: 1; stroke: rgb(20, 75, 57); stroke-opacity: 1;"/><path class="point" transform="translate(41.04,109.94)" d="M0,10.5V-10.5M10.5,0H-10.5" style="opacity: 1; stroke-width: 2px; fill: rgb(128, 130, 133); fill-opacity: 1; stroke: rgb(20, 75, 57); stroke-opacity: 1;"/><path class="point" transform="translate(20.63,87.82)" d="M0,10.5V-10.5M10.5,0H-10.5" style="opacity: 1; stroke-width: 2px; fill: rgb(128, 130, 133); fill-opacity: 1; stroke: rgb(20, 75, 57); stroke-opacity: 1;"/><path class="point" transform="translate(204.38,87.82)" d="M0,10.5V-10.5M10.5,0H-10.5" style="opacity: 1; stroke-width: 2px; fill: rgb(128, 130, 133); fill-opacity: 1; stroke: rgb(20, 75, 57); stroke-opacity: 1;"/><path class="point" transform="translate(183.96,87.82)" d="M0,10.5V-10.5M10.5,0H-10.5" style="opacity: 1; stroke-width: 2px; fill: rgb(128, 130, 133); fill-opacity: 1; stroke: rgb(20, 75, 57); stroke-opacity: 1;"/><path class="point" transform="translate(163.54,87.82)" d="M0,10.5V-10.5M10.5,0H-10.5" style="opacity: 1; stroke-width: 2px; fill: rgb(128, 130, 133); fill-opacity: 1; stroke: rgb(20, 75, 57); stroke-opacity: 1;"/><path class="point" transform="translate(143.13,87.82)" d="M0,10.5V-10.5M10.5,0H-10.5" style="opacity: 1; stroke-width: 2px; fill: rgb(128, 130, 133); fill-opacity: 1; stroke: rgb(20, 75, 57); stroke-opacity: 1;"/><path class="point" transform="translate(122.71,87.82)" d="M0,10.5V-10.5M10.5,0H-10.5" style="opacity: 1; stroke-width: 2px; fill: rgb(128, 130, 133); fill-opacity: 1; stroke: rgb(20, 75, 57); stroke-opacity: 1;"/><path class="point" transform="translate(102.29,87.82)" d="M0,10.5V-10.5M10.5,0H-10.5" style="opacity: 1; stroke-width: 2px; fill: rgb(128, 130, 133); fill-opacity: 1; stroke: rgb(20, 75, 57); stroke-opacity: 1;"/><path class="point" transform="translate(81.88,87.82)" d="M0,10.5V-10.5M10.5,0H-10.5" style="opacity: 1; stroke-width: 2px; fill: rgb(128, 130, 133); fill-opacity: 1; stroke: rgb(20, 75, 57); stroke-opacity: 1;"/><path class="point" transform="translate(61.46,87.82)" d="M0,10.5V-10.5M10.5,0H-10.5" style="opacity: 1; stroke-width: 2px; fill: rgb(128, 130, 133); fill-opacity: 1; stroke: rgb(20, 75, 57); stroke-opacity: 1;"/><path class="point" transform="translate(41.04,87.82)" d="M0,10.5V-10.5M10.5,0H-10.5" style="opacity: 1; stroke-width: 2px; fill: rgb(128, 130, 133); fill-opacity: 1; stroke: rgb(20, 75, 57); stroke-opacity: 1;"/><path class="point" transform="translate(20.63,65.71)" d="M0,10.5V-10.5M10.5,0H-10.5" style="opacity: 1; stroke-width: 2px; fill: rgb(128, 130, 133); fill-opacity: 1; stroke: rgb(20, 75, 57); stroke-opacity: 1;"/><path class="point" transform="translate(204.38,65.71)" d="M0,10.5V-10.5M10.5,0H-10.5" style="opacity: 1; stroke-width: 2px; fill: rgb(128, 130, 133); fill-opacity: 1; stroke: rgb(20, 75, 57); stroke-opacity: 1;"/><path class="point" transform="translate(183.96,65.71)" d="M0,10.5V-10.5M10.5,0H-10.5" style="opacity: 1; stroke-width: 2px; fill: rgb(128, 130, 133); fill-opacity: 1; stroke: rgb(20, 75, 57); stroke-opacity: 1;"/><path class="point" transform="translate(163.54,65.71)" d="M0,10.5V-10.5M10.5,0H-10.5" style="opacity: 1; stroke-width: 2px; fill: rgb(128, 130, 133); fill-opacity: 1; stroke: rgb(20, 75, 57); stroke-opacity: 1;"/><path class="point" transform="translate(122.71,65.71)" d="M0,10.5V-10.5M10.5,0H-10.5" style="opacity: 1; stroke-width: 2px; fill: rgb(128, 130, 133); fill-opacity: 1; stroke: rgb(20, 75, 57); stroke-opacity: 1;"/><path class="point" transform="translate(102.29,65.71)" d="M0,10.5V-10.5M10.5,0H-10.5" style="opacity: 1; stroke-width: 2px; fill: rgb(128, 130, 133); fill-opacity: 1; stroke: rgb(20, 75, 57); stroke-opacity: 1;"/><path class="point" transform="translate(81.88,65.71)" d="M0,10.5V-10.5M10.5,0H-10.5" style="opacity: 1; stroke-width: 2px; fill: rgb(128, 130, 133); fill-opacity: 1; stroke: rgb(20, 75, 57); stroke-opacity: 1;"/><path class="point" transform="translate(61.46,65.71)" d="M0,10.5V-10.5M10.5,0H-10.5" style="opacity: 1; stroke-width: 2px; fill: rgb(128, 130, 133); fill-opacity: 1; stroke: rgb(20, 75, 57); stroke-opacity: 1;"/><path class="point" transform="translate(41.04,65.71)" d="M0,10.5V-10.5M10.5,0H-10.5" style="opacity: 1; stroke-width: 2px; fill: rgb(128, 130, 133); fill-opacity: 1; stroke: rgb(20, 75, 57); stroke-opacity: 1;"/><path class="point" transform="translate(20.63,43.59)" d="M0,10.5V-10.5M10.5,0H-10.5" style="opacity: 1; stroke-width: 2px; fill: rgb(128, 130, 133); fill-opacity: 1; stroke: rgb(20, 75, 57); stroke-opacity: 1;"/><path class="point" transform="translate(204.38,43.59)" d="M0,10.5V-10.5M10.5,0H-10.5" style="opacity: 1; stroke-width: 2px; fill: rgb(128, 130, 133); fill-opacity: 1; stroke: rgb(20, 75, 57); stroke-opacity: 1;"/><path class="point" transform="translate(183.96,43.59)" d="M0,10.5V-10.5M10.5,0H-10.5" style="opacity: 1; stroke-width: 2px; fill: rgb(128, 130, 133); fill-opacity: 1; stroke: rgb(20, 75, 57); stroke-opacity: 1;"/><path class="point" transform="translate(163.54,43.59)" d="M0,10.5V-10.5M10.5,0H-10.5" style="opacity: 1; stroke-width: 2px; fill: rgb(128, 130, 133); fill-opacity: 1; stroke: rgb(20, 75, 57); stroke-opacity: 1;"/><path class="point" transform="translate(143.13,43.59)" d="M0,10.5V-10.5M10.5,0H-10.5" style="opacity: 1; stroke-width: 2px; fill: rgb(128, 130, 133); fill-opacity: 1; stroke: rgb(20, 75, 57); stroke-opacity: 1;"/><path class="point" transform="translate(122.71,43.59)" d="M0,10.5V-10.5M10.5,0H-10.5" style="opacity: 1; stroke-width: 2px; fill: rgb(128, 130, 133); fill-opacity: 1; stroke: rgb(20, 75, 57); stroke-opacity: 1;"/><path class="point" transform="translate(102.29,43.59)" d="M0,10.5V-10.5M10.5,0H-10.5" style="opacity: 1; stroke-width: 2px; fill: rgb(128, 130, 133); fill-opacity: 1; stroke: rgb(20, 75, 57); stroke-opacity: 1;"/><path class="point" transform="translate(81.88,43.59)" d="M0,10.5V-10.5M10.5,0H-10.5" style="opacity: 1; stroke-width: 2px; fill: rgb(128, 130, 133); fill-opacity: 1; stroke: rgb(20, 75, 57); stroke-opacity: 1;"/><path class="point" transform="translate(61.46,43.59)" d="M0,10.5V-10.5M10.5,0H-10.5" style="opacity: 1; stroke-width: 2px; fill: rgb(128, 130, 133); fill-opacity: 1; stroke: rgb(20, 75, 57); stroke-opacity: 1;"/><path class="point" transform="translate(41.04,43.59)" d="M0,10.5V-10.5M10.5,0H-10.5" style="opacity: 1; stroke-width: 2px; fill: rgb(128, 130, 133); fill-opacity: 1; stroke: rgb(20, 75, 57); stroke-opacity: 1;"/><path class="point" transform="translate(20.63,21.47)" d="M0,10.5V-10.5M10.5,0H-10.5" style="opacity: 1; stroke-width: 2px; fill: rgb(128, 130, 133); fill-opacity: 1; stroke: rgb(20, 75, 57); stroke-opacity: 1;"/><path class="point" transform="translate(204.38,21.47)" d="M0,10.5V-10.5M10.5,0H-10.5" style="opacity: 1; stroke-width: 2px; fill: rgb(128, 130, 133); fill-opacity: 1; stroke: rgb(20, 75, 57); stroke-opacity: 1;"/><path class="point" transform="translate(183.96,21.47)" d="M0,10.5V-10.5M10.5,0H-10.5" style="opacity: 1; stroke-width: 2px; fill: rgb(128, 130, 133); fill-opacity: 1; stroke: rgb(20, 75, 57); stroke-opacity: 1;"/><path class="point" transform="translate(163.54,21.47)" d="M0,10.5V-10.5M10.5,0H-10.5" style="opacity: 1; stroke-width: 2px; fill: rgb(128, 130, 133); fill-opacity: 1; stroke: rgb(20, 75, 57); stroke-opacity: 1;"/><path class="point" transform="translate(143.13,21.47)" d="M0,10.5V-10.5M10.5,0H-10.5" style="opacity: 1; stroke-width: 2px; fill: rgb(128, 130, 133); fill-opacity: 1; stroke: rgb(20, 75, 57); stroke-opacity: 1;"/><path class="point" transform="translate(122.71,21.47)" d="M0,10.5V-10.5M10.5,0H-10.5" style="opacity: 1; stroke-width: 2px; fill: rgb(128, 130, 133); fill-opacity: 1; stroke: rgb(20, 75, 57); stroke-opacity: 1;"/><path class="point" transform="translate(102.29,21.47)" d="M0,10.5V-10.5M10.5,0H-10.5" style="opacity: 1; stroke-width: 2px; fill: rgb(128, 130, 133); fill-opacity: 1; stroke: rgb(20, 75, 57); stroke-opacity: 1;"/><path class="point" transform="translate(81.88,21.47)" d="M0,10.5V-10.5M10.5,0H-10.5" style="opacity: 1; stroke-width: 2px; fill: rgb(128, 130, 133); fill-opacity: 1; stroke: rgb(20, 75, 57); stroke-opacity: 1;"/><path class="point" transform="translate(61.46,21.47)" d="M0,10.5V-10.5M10.5,0H-10.5" style="opacity: 1; stroke-width: 2px; fill: rgb(128, 130, 133); fill-opacity: 1; stroke: rgb(20, 75, 57); stroke-opacity: 1;"/><path class="point" transform="translate(41.04,21.47)" d="M0,10.5V-10.5M10.5,0H-10.5" style="opacity: 1; stroke-width: 2px; fill: rgb(128, 130, 133); fill-opacity: 1; stroke: rgb(20, 75, 57); stroke-opacity: 1;"/></g><g class="text"/></g></g></g><g class="overplot"/><path class="xlines-above crisp" d="M94,303H323M94,59H323" style="fill: none; stroke-width: 2px; stroke: rgb(0, 0, 0); stroke-opacity: 1;"/><path class="ylines-above crisp" d="M95,60V302M322,60V302" style="fill: none; stroke-width: 2px; stroke: rgb(0, 0, 0); stroke-opacity: 1;"/><g class="overlines-above"/><g class="xaxislayer-above"><g class="xtick"><text text-anchor="start" x="0" y="320.8" transform="translate(116.63,0) rotate(90,0,313.8)" style="font-family: Arial; font-size: 14px; fill: rgb(42, 63, 95); fill-opacity: 1; white-space: pre; opacity: 1;">100_90</text></g><g class="xtick"><text text-anchor="start" x="0" y="320.8" transform="translate(137.04,0) rotate(90,0,313.8)" style="font-family: Arial; font-size: 14px; fill: rgb(42, 63, 95); fill-opacity: 1; white-space: pre; opacity: 1;">90_80</text></g><g class="xtick"><text text-anchor="start" x="0" y="320.8" transform="translate(157.46,0) rotate(90,0,313.8)" style="font-family: Arial; font-size: 14px; fill: rgb(42, 63, 95); fill-opacity: 1; white-space: pre; opacity: 1;">80_70</text></g><g class="xtick"><text text-anchor="start" x="0" y="320.8" transform="translate(177.88,0) rotate(90,0,313.8)" style="font-family: Arial; font-size: 14px; fill: rgb(42, 63, 95); fill-opacity: 1; white-space: pre; opacity: 1;">70_60</text></g><g class="xtick"><text text-anchor="start" x="0" y="320.8" transform="translate(198.29000000000002,0) rotate(90,0,313.8)" style="font-family: Arial; font-size: 14px; fill: rgb(42, 63, 95); fill-opacity: 1; white-space: pre; opacity: 1;">60_50</text></g><g class="xtick"><text text-anchor="start" x="0" y="320.8" transform="translate(218.70999999999998,0) rotate(90,0,313.8)" style="font-family: Arial; font-size: 14px; fill: rgb(42, 63, 95); fill-opacity: 1; white-space: pre; opacity: 1;">50_40</text></g><g class="xtick"><text text-anchor="start" x="0" y="320.8" transform="translate(239.13,0) rotate(90,0,313.8)" style="font-family: Arial; font-size: 14px; fill: rgb(42, 63, 95); fill-opacity: 1; white-space: pre; opacity: 1;">40_30</text></g><g class="xtick"><text text-anchor="start" x="0" y="320.8" transform="translate(259.53999999999996,0) rotate(90,0,313.8)" style="font-family: Arial; font-size: 14px; fill: rgb(42, 63, 95); fill-opacity: 1; white-space: pre; opacity: 1;">30_20</text></g><g class="xtick"><text text-anchor="start" x="0" y="320.8" transform="translate(279.96000000000004,0) rotate(90,0,313.8)" style="font-family: Arial; font-size: 14px; fill: rgb(42, 63, 95); fill-opacity: 1; white-space: pre; opacity: 1;">20_10</text></g><g class="xtick"><text text-anchor="start" x="0" y="320.8" transform="translate(300.38,0) rotate(90,0,313.8)" style="font-family: Arial; font-size: 14px; fill: rgb(42, 63, 95); fill-opacity: 1; white-space: pre; opacity: 1;">10_0</text></g></g><g class="yaxislayer-above"><g class="ytick"><text text-anchor="end" x="91.2" y="4.8999999999999995" transform="translate(0,280.52)" style="font-family: Arial; font-size: 14px; fill: rgb(42, 63, 95); fill-opacity: 1; white-space: pre; opacity: 1;">100_90</text></g><g class="ytick"><text text-anchor="end" x="91.2" y="4.8999999999999995" transform="translate(0,258.40999999999997)" style="font-family: Arial; font-size: 14px; fill: rgb(42, 63, 95); fill-opacity: 1; white-space: pre; opacity: 1;">90_80</text></g><g class="ytick"><text text-anchor="end" x="91.2" y="4.8999999999999995" transform="translate(0,236.29)" style="font-family: Arial; font-size: 14px; fill: rgb(42, 63, 95); fill-opacity: 1; white-space: pre; opacity: 1;">80_70</text></g><g class="ytick"><text text-anchor="end" x="91.2" y="4.8999999999999995" transform="translate(0,214.17)" style="font-family: Arial; font-size: 14px; fill: rgb(42, 63, 95); fill-opacity: 1; white-space: pre; opacity: 1;">70_60</text></g><g class="ytick"><text text-anchor="end" x="91.2" y="4.8999999999999995" transform="translate(0,192.06)" style="font-family: Arial; font-size: 14px; fill: rgb(42, 63, 95); fill-opacity: 1; white-space: pre; opacity: 1;">60_50</text></g><g class="ytick"><text text-anchor="end" x="91.2" y="4.8999999999999995" transform="translate(0,169.94)" style="font-family: Arial; font-size: 14px; fill: rgb(42, 63, 95); fill-opacity: 1; white-space: pre; opacity: 1;">50_40</text></g><g class="ytick"><text text-anchor="end" x="91.2" y="4.8999999999999995" transform="translate(0,147.82)" style="font-family: Arial; font-size: 14px; fill: rgb(42, 63, 95); fill-opacity: 1; white-space: pre; opacity: 1;">40_30</text></g><g class="ytick"><text text-anchor="end" x="91.2" y="4.8999999999999995" transform="translate(0,125.71)" style="font-family: Arial; font-size: 14px; fill: rgb(42, 63, 95); fill-opacity: 1; white-space: pre; opacity: 1;">30_20</text></g><g class="ytick"><text text-anchor="end" x="91.2" y="4.8999999999999995" transform="translate(0,103.59)" style="font-family: Arial; font-size: 14px; fill: rgb(42, 63, 95); fill-opacity: 1; white-space: pre; opacity: 1;">20_10</text></g><g class="ytick"><text text-anchor="end" x="91.2" y="4.8999999999999995" transform="translate(0,81.47)" style="font-family: Arial; font-size: 14px; fill: rgb(42, 63, 95); fill-opacity: 1; white-space: pre; opacity: 1;">10_0</text></g></g><g class="overaxes-above"/></g></g><g class="polarlayer"/><g class="smithlayer"/><g class="ternarylayer"/><g class="geolayer"/><g class="funnelarealayer"/><g class="pielayer"/><g class="iciclelayer"/><g class="treemaplayer"/><g class="sunburstlayer"/><g class="glimages"/><defs id="topdefs-5f0571"><g class="clips"/><clipPath id="legend5f0571"><rect width="107" height="117" x="0" y="0"/></clipPath></defs><g class="layer-above"><g class="imagelayer"/><g class="shapelayer"/></g><g class="infolayer"><g class="legend" pointer-events="all" transform="translate(325.5,60)"><rect class="bg" shape-rendering="crispEdges" width="107" height="117" x="0" y="0" style="stroke: rgb(68, 68, 68); stroke-opacity: 1; fill: rgb(255, 255, 255); fill-opacity: 1; stroke-width: 0px;"/><g class="scrollbox" transform="" clip-path="url(#legend5f0571)"><text class="legendtitletext" text-anchor="start" x="2" y="22.1" style="font-family: Arial; font-size: 17px; fill: rgb(42, 63, 95); fill-opacity: 1; white-space: pre;">Significance</text><g class="groups" transform=""><g class="traces" transform="translate(0,37.7)" style="opacity: 1;"><text class="legendtext" text-anchor="start" x="40" y="5.46" style="font-family: Arial; font-size: 14px; fill: rgb(42, 63, 95); fill-opacity: 1; white-space: pre;">***</text><g class="layers" style="opacity: 1;"><g class="legendfill"/><g class="legendlines"/><g class="legendsymbols"><g class="legendpoints"><path class="scatterpts" transform="translate(20,0)" d="M7.5,0A7.5,7.5 0 1,1 0,-7.5A7.5,7.5 0 0,1 7.5,0ZM0,0.5L0.5,0L0,-0.5L-0.5,0Z" style="opacity: 1; stroke-width: 2px; fill: rgb(136, 196, 8); fill-opacity: 1; stroke: rgb(20, 75, 57); stroke-opacity: 1;"/></g></g></g><rect class="legendtoggle" x="0" y="-10.6" width="61" height="21.2" style="fill: rgb(0, 0, 0); fill-opacity: 0;"/></g></g><g class="groups" transform=""><g class="traces" transform="translate(0,58.9)" style="opacity: 1;"><text class="legendtext" text-anchor="start" x="40" y="5.46" style="font-family: Arial; font-size: 14px; fill: rgb(42, 63, 95); fill-opacity: 1; white-space: pre;">**</text><g class="layers" style="opacity: 1;"><g class="legendfill"/><g class="legendlines"/><g class="legendsymbols"><g class="legendpoints"><path class="scatterpts" transform="translate(20,0)" d="M7.5,0A7.5,7.5 0 1,1 0,-7.5A7.5,7.5 0 0,1 7.5,0ZM0,0.5L0.5,0L0,-0.5L-0.5,0Z" style="opacity: 1; stroke-width: 2px; fill: rgb(166, 147, 99); fill-opacity: 1; stroke: rgb(20, 75, 57); stroke-opacity: 1;"/></g></g></g><rect class="legendtoggle" x="0" y="-10.6" width="61" height="21.2" style="fill: rgb(0, 0, 0); fill-opacity: 0;"/></g></g><g class="groups" transform=""><g class="traces" transform="translate(0,80.1)" style="opacity: 1;"><text class="legendtext" text-anchor="start" x="40" y="5.46" style="font-family: Arial; font-size: 14px; fill: rgb(42, 63, 95); fill-opacity: 1; white-space: pre;">*</text><g class="layers" style="opacity: 1;"><g class="legendfill"/><g class="legendlines"/><g class="legendsymbols"><g class="legendpoints"><path class="scatterpts" transform="translate(20,0)" d="M7.5,0A7.5,7.5 0 1,1 0,-7.5A7.5,7.5 0 0,1 7.5,0ZM0,0.5L0.5,0L0,-0.5L-0.5,0Z" style="opacity: 1; stroke-width: 2px; fill: rgb(255, 214, 2); fill-opacity: 1; stroke: rgb(20, 75, 57); stroke-opacity: 1;"/></g></g></g><rect class="legendtoggle" x="0" y="-10.6" width="61" height="21.2" style="fill: rgb(0, 0, 0); fill-opacity: 0;"/></g></g><g class="groups" transform=""><g class="traces" transform="translate(0,101.29999999999998)" style="opacity: 1;"><text class="legendtext" text-anchor="start" x="40" y="5.46" style="font-family: Arial; font-size: 14px; fill: rgb(42, 63, 95); fill-opacity: 1; white-space: pre;">NE</text><g class="layers" style="opacity: 1;"><g class="legendfill"/><g class="legendlines"/><g class="legendsymbols"><g class="legendpoints"><path class="scatterpts" transform="translate(20,0)" d="M0,10.5V-10.5M10.5,0H-10.5" style="opacity: 1; stroke-width: 2px; fill: rgb(128, 130, 133); fill-opacity: 1; stroke: rgb(20, 75, 57); stroke-opacity: 1;"/></g></g></g><rect class="legendtoggle" x="0" y="-10.6" width="61" height="21.2" style="fill: rgb(0, 0, 0); fill-opacity: 0;"/></g></g></g><rect class="scrollbar" rx="20" ry="3" width="0" height="0" x="0" y="0" style="fill: rgb(128, 139, 164); fill-opacity: 1;"/></g><g class="g-gtitle"><text class="gtitle" x="22.25" y="30" text-anchor="start" dy="0em" style="font-family: Arial; font-size: 20px; fill: rgb(42, 63, 95); opacity: 1; font-weight: normal; white-space: pre;">wk-Shell Enrichment</text></g><g class="g-xtitle"><text class="xtitle" x="208.5" y="392.6998046875" text-anchor="middle" style="font-family: Arial; font-size: 17px; fill: rgb(42, 63, 95); opacity: 1; font-weight: normal; white-space: pre;">VTTSHI-HSV</text></g><g class="g-ytitle" transform="translate(3.712890625,0)"><text class="ytitle" transform="rotate(-90,12.287499999999994,181)" x="12.287499999999994" y="181" text-anchor="middle" style="font-family: Arial; font-size: 17px; fill: rgb(42, 63, 95); opacity: 1; font-weight: normal; white-space: pre;">VTTSHI-HPV</text></g></g></svg>