<svg class="main-svg" xmlns="http://www.w3.org/2000/svg" xmlns:xlink="http://www.w3.org/1999/xlink" width="1000" height="600" style="" viewBox="0 0 1000 600"><rect x="0" y="0" width="1000" height="600" style="fill: rgb(0, 0, 0); fill-opacity: 0;"/><defs id="defs-496dc2"><g class="clips"/><g class="gradients"/><g class="patterns"/></defs><g class="bglayer"/><g class="layer-below"><g class="imagelayer"/><g class="shapelayer"/></g><g class="cartesianlayer"/><g class="polarlayer"/><g class="smithlayer"/><g class="ternarylayer"/><g class="geolayer"/><g class="funnelarealayer"/><g class="pielayer"/><g class="iciclelayer"/><g class="treemaplayer"/><g class="sunburstlayer"/><g class="glimages"/><g class="sankey" transform="translate(80,100)matrix(1 0 0 1 0 0)" style="box-sizing: content-box; position: absolute; left: 0px; shape-rendering: geometricprecision; pointer-events: auto;"><g class="sankey-links" style="fill: none;"><path class="sankey-link" d="M89,27.37333787930448C126,27.37333787930448 126,29.426696215479033 163,29.426696215479033L163,40.50920559154449C126,40.50920559154449 126,38.45584725536994 89,38.45584725536994Z" style="stroke: rgb(68, 68, 68); stroke-opacity: 1; fill: rgb(99, 110, 250); fill-opacity: 0.5; stroke-width: 0; opacity: 1;"/><path class="sankey-link" d="M89,38.45584725536994C126,38.45584725536994 126,64.57330378452096 163,64.57330378452096L163,72.28042959427208C126,72.28042959427208 126,46.162973065121044 89,46.162973065121044Z" style="stroke: rgb(68, 68, 68); stroke-opacity: 1; fill: rgb(99, 110, 250); fill-opacity: 0.5; stroke-width: 0; opacity: 1;"/><path class="sankey-link" d="M89,46.162973065121044C126,46.162973065121044 126,128.52318445277876 163,128.52318445277876L163,132.7424139106717C126,132.7424139106717 126,50.38220252301398 89,50.38220252301398Z" style="stroke: rgb(68, 68, 68); stroke-opacity: 1; fill: rgb(99, 110, 250); fill-opacity: 0.5; stroke-width: 0; opacity: 1;"/><path class="sankey-link" d="M89,50.38220252301399C126,50.38220252301399 126,177.84640300034096 163,177.84640300034096L163,179.98414592567337C126,179.98414592567337 126,52.519945448346405 89,52.519945448346405Z" style="stroke: rgb(68, 68, 68); stroke-opacity: 1; fill: rgb(99, 110, 250); fill-opacity: 0.5; stroke-width: 0; opacity: 1;"/><path class="sankey-link" d="M89,52.51994544834641C126,52.51994544834641 126,224.6380838731675 163,224.6380838731675L163,225.8194681213775C126,225.8194681213775 126,53.701329696556435 89,53.701329696556435Z" style="stroke: rgb(68, 68, 68); stroke-opacity: 1; fill: rgb(99, 110, 250); fill-opacity: 0.5; stroke-width: 0; opacity: 1;"/><path class="sankey-link" d="M89,53.701329696556435C126,53.701329696556435 126,271.42976474599396 163,271.42976474599396L163,272.5548926014321C126,272.5548926014321 126,54.82645755199456 89,54.82645755199456Z" style="stroke: rgb(68, 68, 68); stroke-opacity: 1; fill: rgb(99, 110, 250); fill-opacity: 0.5; stroke-width: 0; opacity: 1;"/><path class="sankey-link" d="M89,54.82645755199455C126,54.82645755199455 126,313.664677804296 163,313.664677804296L163,314.1147289464712C126,314.1147289464712 126,55.27650869416979 89,55.27650869416979Z" style="stroke: rgb(99, 110, 250); stroke-opacity: 0.5; fill: rgb(99, 110, 250); fill-opacity: 0.5; stroke-width: 1; opacity: 1;"/><path class="sankey-link" d="M89,55.2765086941698C126,55.2765086941698 126,352.24292533242436 163,352.24292533242436L163,352.8617456529153C126,352.8617456529153 126,55.89532901466077 89,55.89532901466077Z" style="stroke: rgb(99, 110, 250); stroke-opacity: 0.5; fill: rgb(99, 110, 250); fill-opacity: 0.5; stroke-width: 1; opacity: 1;"/><path class="sankey-link" d="M89,55.89532901466076C126,55.89532901466076 126,393.1276849642007 163,393.1276849642007L163,393.4652233208321C126,393.4652233208321 126,56.2328673712922 89,56.2328673712922Z" style="stroke: rgb(99, 110, 250); stroke-opacity: 0.5; fill: rgb(99, 110, 250); fill-opacity: 0.5; stroke-width: 1; opacity: 1;"/><path class="sankey-link" d="M89,56.232867371292194C126,56.232867371292194 126,427.14916467780455 163,427.14916467780455L163,427.5429594272079C126,427.5429594272079 126,56.626662120695535 89,56.626662120695535Z" style="stroke: rgb(99, 110, 250); stroke-opacity: 0.5; fill: rgb(99, 110, 250); fill-opacity: 0.5; stroke-width: 1; opacity: 1;"/><path class="sankey-link" d="M89,66.62666212069553C126,66.62666212069553 126,40.50920559154449 163,40.50920559154449L163,46.69740879645415C126,46.69740879645415 126,72.81486532560518 89,72.81486532560518Z" style="stroke: rgb(68, 68, 68); stroke-opacity: 1; fill: rgb(239, 85, 59); fill-opacity: 0.5; stroke-width: 0; opacity: 1;"/><path class="sankey-link" d="M89,72.81486532560518C126,72.81486532560518 126,72.28042959427206 163,72.28042959427206L163,86.00698943061711C126,86.00698943061711 126,86.54142516195023 89,86.54142516195023Z" style="stroke: rgb(68, 68, 68); stroke-opacity: 1; fill: rgb(239, 85, 59); fill-opacity: 0.5; stroke-width: 0; opacity: 1;"/><path class="sankey-link" d="M89,86.54142516195023C126,86.54142516195023 126,132.7424139106717 163,132.7424139106717L163,141.68718036140473C126,141.68718036140473 126,95.48619161268326 89,95.48619161268326Z" style="stroke: rgb(68, 68, 68); stroke-opacity: 1; fill: rgb(239, 85, 59); fill-opacity: 0.5; stroke-width: 0; opacity: 1;"/><path class="sankey-link" d="M89,95.48619161268327C126,95.48619161268327 126,179.98414592567337 163,179.98414592567337L163,187.9162973065121C126,187.9162973065121 126,103.41834299352199 89,103.41834299352199Z" style="stroke: rgb(68, 68, 68); stroke-opacity: 1; fill: rgb(239, 85, 59); fill-opacity: 0.5; stroke-width: 0; opacity: 1;"/><path class="sankey-link" d="M89,103.418342993522C126,103.418342993522 126,225.81946812137753 163,225.81946812137753L163,231.55762018411193C126,231.55762018411193 126,109.1564950562564 89,109.1564950562564Z" style="stroke: rgb(68, 68, 68); stroke-opacity: 1; fill: rgb(239, 85, 59); fill-opacity: 0.5; stroke-width: 0; opacity: 1;"/><path class="sankey-link" d="M89,109.1564950562564C126,109.1564950562564 126,272.5548926014321 163,272.5548926014321L163,276.155301738834C126,276.155301738834 126,112.75690419365839 89,112.75690419365839Z" style="stroke: rgb(68, 68, 68); stroke-opacity: 1; fill: rgb(239, 85, 59); fill-opacity: 0.5; stroke-width: 0; opacity: 1;"/><path class="sankey-link" d="M89,112.75690419365839C126,112.75690419365839 126,314.11472894647125 163,314.11472894647125L163,316.646266621207C126,316.646266621207 126,115.28844186839416 89,115.28844186839416Z" style="stroke: rgb(68, 68, 68); stroke-opacity: 1; fill: rgb(239, 85, 59); fill-opacity: 0.5; stroke-width: 0; opacity: 1;"/><path class="sankey-link" d="M89,115.28844186839414C126,115.28844186839414 126,352.8617456529153 163,352.8617456529153L163,354.99948857824774C126,354.99948857824774 126,117.42618479372656 89,117.42618479372656Z" style="stroke: rgb(68, 68, 68); stroke-opacity: 1; fill: rgb(239, 85, 59); fill-opacity: 0.5; stroke-width: 0; opacity: 1;"/><path class="sankey-link" d="M89,117.42618479372656C126,117.42618479372656 126,393.46522332083214 163,393.46522332083214L163,395.26542788953316C126,395.26542788953316 126,119.22638936242755 89,119.22638936242755Z" style="stroke: rgb(68, 68, 68); stroke-opacity: 1; fill: rgb(239, 85, 59); fill-opacity: 0.5; stroke-width: 0; opacity: 1;"/><path class="sankey-link" d="M89,119.22638936242755C126,119.22638936242755 126,427.5429594272079 163,427.5429594272079L163,428.4430617115584C126,428.4430617115584 126,120.12649164677804 89,120.12649164677804Z" style="stroke: rgb(239, 85, 59); stroke-opacity: 0.5; fill: rgb(239, 85, 59); fill-opacity: 0.5; stroke-width: 1; opacity: 1;"/><path class="sankey-link" d="M89,130.126491646778C126,130.126491646778 126,46.69740879645414 163,46.69740879645414L163,48.83515172178656C126,48.83515172178656 126,132.2642345721104 89,132.2642345721104Z" style="stroke: rgb(68, 68, 68); stroke-opacity: 1; fill: rgb(0, 204, 150); fill-opacity: 0.5; stroke-width: 0; opacity: 1;"/><path class="sankey-link" d="M89,132.2642345721104C126,132.2642345721104 126,86.0069894306171 163,86.0069894306171L163,93.03903852710533C126,93.03903852710533 126,139.29628366859862 89,139.29628366859862Z" style="stroke: rgb(68, 68, 68); stroke-opacity: 1; fill: rgb(0, 204, 150); fill-opacity: 0.5; stroke-width: 0; opacity: 1;"/><path class="sankey-link" d="M89,139.29628366859865C126,139.29628366859865 126,141.68718036140473 163,141.68718036140473L163,147.59410160245483C126,147.59410160245483 126,145.20320490964875 89,145.20320490964875Z" style="stroke: rgb(68, 68, 68); stroke-opacity: 1; fill: rgb(0, 204, 150); fill-opacity: 0.5; stroke-width: 0; opacity: 1;"/><path class="sankey-link" d="M89,145.20320490964878C126,145.20320490964878 126,187.9162973065121 163,187.9162973065121L163,193.20439822707124C126,193.20439822707124 126,150.49130583020792 89,150.49130583020792Z" style="stroke: rgb(68, 68, 68); stroke-opacity: 1; fill: rgb(0, 204, 150); fill-opacity: 0.5; stroke-width: 0; opacity: 1;"/><path class="sankey-link" d="M89,150.49130583020792C126,150.49130583020792 126,231.55762018411193 163,231.55762018411193L163,237.40828503239013C126,237.40828503239013 126,156.34197067848612 89,156.34197067848612Z" style="stroke: rgb(68, 68, 68); stroke-opacity: 1; fill: rgb(0, 204, 150); fill-opacity: 0.5; stroke-width: 0; opacity: 1;"/><path class="sankey-link" d="M89,156.34197067848612C126,156.34197067848612 126,276.15530173883405 163,276.15530173883405L163,279.69945448346414C126,279.69945448346414 126,159.8861234231162 89,159.8861234231162Z" style="stroke: rgb(68, 68, 68); stroke-opacity: 1; fill: rgb(0, 204, 150); fill-opacity: 0.5; stroke-width: 0; opacity: 1;"/><path class="sankey-link" d="M89,159.8861234231162C126,159.8861234231162 126,316.646266621207 163,316.646266621207L163,319.79662461643375C126,319.79662461643375 126,163.03648141834293 89,163.03648141834293Z" style="stroke: rgb(68, 68, 68); stroke-opacity: 1; fill: rgb(0, 204, 150); fill-opacity: 0.5; stroke-width: 0; opacity: 1;"/><path class="sankey-link" d="M89,163.03648141834293C126,163.03648141834293 126,354.99948857824774 163,354.99948857824774L163,357.02471871803635C126,357.02471871803635 126,165.06171155813155 89,165.06171155813155Z" style="stroke: rgb(68, 68, 68); stroke-opacity: 1; fill: rgb(0, 204, 150); fill-opacity: 0.5; stroke-width: 0; opacity: 1;"/><path class="sankey-link" d="M89,165.06171155813155C126,165.06171155813155 126,395.2654278895331 163,395.2654278895331L163,397.2906580293217C126,397.2906580293217 126,167.08694169792017 89,167.08694169792017Z" style="stroke: rgb(68, 68, 68); stroke-opacity: 1; fill: rgb(0, 204, 150); fill-opacity: 0.5; stroke-width: 0; opacity: 1;"/><path class="sankey-link" d="M89,167.08694169792017C126,167.08694169792017 126,428.4430617115584 163,428.4430617115584L163,429.4556767814527C126,429.4556767814527 126,168.09955676781448 89,168.09955676781448Z" style="stroke: rgb(68, 68, 68); stroke-opacity: 1; fill: rgb(0, 204, 150); fill-opacity: 0.5; stroke-width: 0; opacity: 1;"/><path class="sankey-link" d="M89,178.09955676781448C126,178.09955676781448 126,48.835151721786566 163,48.835151721786566L163,50.01653596999659C126,50.01653596999659 126,179.28094101602449 89,179.28094101602449Z" style="stroke: rgb(68, 68, 68); stroke-opacity: 1; fill: rgb(171, 99, 250); fill-opacity: 0.5; stroke-width: 0; opacity: 1;"/><path class="sankey-link" d="M89,179.2809410160245C126,179.2809410160245 126,93.03903852710533 163,93.03903852710533L163,98.32713944766448C126,98.32713944766448 126,184.56904193658366 89,184.56904193658366Z" style="stroke: rgb(68, 68, 68); stroke-opacity: 1; fill: rgb(171, 99, 250); fill-opacity: 0.5; stroke-width: 0; opacity: 1;"/><path class="sankey-link" d="M89,184.56904193658366C126,184.56904193658366 126,147.59410160245486 163,147.59410160245486L163,152.26338220252305C126,152.26338220252305 126,189.23832253665185 89,189.23832253665185Z" style="stroke: rgb(68, 68, 68); stroke-opacity: 1; fill: rgb(171, 99, 250); fill-opacity: 0.5; stroke-width: 0; opacity: 1;"/><path class="sankey-link" d="M89,189.23832253665185C126,189.23832253665185 126,193.20439822707124 163,193.20439822707124L163,197.87367882713943C126,197.87367882713943 126,193.90760313672004 89,193.90760313672004Z" style="stroke: rgb(68, 68, 68); stroke-opacity: 1; fill: rgb(171, 99, 250); fill-opacity: 0.5; stroke-width: 0; opacity: 1;"/><path class="sankey-link" d="M89,193.90760313672004C126,193.90760313672004 126,237.40828503239013 163,237.40828503239013L163,242.24633481077402C126,242.24633481077402 126,198.74565291510393 89,198.74565291510393Z" style="stroke: rgb(68, 68, 68); stroke-opacity: 1; fill: rgb(171, 99, 250); fill-opacity: 0.5; stroke-width: 0; opacity: 1;"/><path class="sankey-link" d="M89,198.74565291510396C126,198.74565291510396 126,279.69945448346414 163,279.69945448346414L163,284.36873508353233C126,284.36873508353233 126,203.41493351517215 89,203.41493351517215Z" style="stroke: rgb(68, 68, 68); stroke-opacity: 1; fill: rgb(171, 99, 250); fill-opacity: 0.5; stroke-width: 0; opacity: 1;"/><path class="sankey-link" d="M89,203.41493351517215C126,203.41493351517215 126,319.79662461643375 163,319.79662461643375L163,322.9469826116605C126,322.9469826116605 126,206.56529151039888 89,206.56529151039888Z" style="stroke: rgb(68, 68, 68); stroke-opacity: 1; fill: rgb(171, 99, 250); fill-opacity: 0.5; stroke-width: 0; opacity: 1;"/><path class="sankey-link" d="M89,206.56529151039888C126,206.56529151039888 126,357.02471871803635 163,357.02471871803635L163,359.8375383566317C126,359.8375383566317 126,209.37811114899415 89,209.37811114899415Z" style="stroke: rgb(68, 68, 68); stroke-opacity: 1; fill: rgb(171, 99, 250); fill-opacity: 0.5; stroke-width: 0; opacity: 1;"/><path class="sankey-link" d="M89,209.37811114899418C126,209.37811114899418 126,397.2906580293217 163,397.2906580293217L163,399.4846573474261C126,399.4846573474261 126,211.5721104670985 89,211.5721104670985Z" style="stroke: rgb(68, 68, 68); stroke-opacity: 1; fill: rgb(171, 99, 250); fill-opacity: 0.5; stroke-width: 0; opacity: 1;"/><path class="sankey-link" d="M89,211.5721104670985C126,211.5721104670985 126,429.4556767814527 163,429.4556767814527L163,431.25588135015374C126,431.25588135015374 126,213.37231503579946 89,213.37231503579946Z" style="stroke: rgb(68, 68, 68); stroke-opacity: 1; fill: rgb(171, 99, 250); fill-opacity: 0.5; stroke-width: 0; opacity: 1;"/><path class="sankey-link" d="M89,223.3723150357996C126,223.3723150357996 126,50.01653596999659 163,50.01653596999659L163,51.81674053869758C126,51.81674053869758 126,225.17251960450056 89,225.17251960450056Z" style="stroke: rgb(68, 68, 68); stroke-opacity: 1; fill: rgb(255, 161, 90); fill-opacity: 0.5; stroke-width: 0; opacity: 1;"/><path class="sankey-link" d="M89,225.1725196045006C126,225.1725196045006 126,98.32713944766449 163,98.32713944766449L163,102.77139447664506C126,102.77139447664506 126,229.61677463348119 89,229.61677463348119Z" style="stroke: rgb(68, 68, 68); stroke-opacity: 1; fill: rgb(255, 161, 90); fill-opacity: 0.5; stroke-width: 0; opacity: 1;"/><path class="sankey-link" d="M89,229.61677463348116C126,229.61677463348116 126,152.26338220252305 163,152.26338220252305L163,156.48261166041598C126,156.48261166041598 126,233.8360040913741 89,233.8360040913741Z" style="stroke: rgb(68, 68, 68); stroke-opacity: 1; fill: rgb(255, 161, 90); fill-opacity: 0.5; stroke-width: 0; opacity: 1;"/><path class="sankey-link" d="M89,233.8360040913741C126,233.8360040913741 126,197.87367882713943 163,197.87367882713943L163,202.09290828503237C126,202.09290828503237 126,238.05523354926703 89,238.05523354926703Z" style="stroke: rgb(68, 68, 68); stroke-opacity: 1; fill: rgb(255, 161, 90); fill-opacity: 0.5; stroke-width: 0; opacity: 1;"/><path class="sankey-link" d="M89,238.05523354926703C126,238.05523354926703 126,242.24633481077404 163,242.24633481077404L163,248.15325605182414C126,248.15325605182414 126,243.96215479031713 89,243.96215479031713Z" style="stroke: rgb(68, 68, 68); stroke-opacity: 1; fill: rgb(255, 161, 90); fill-opacity: 0.5; stroke-width: 0; opacity: 1;"/><path class="sankey-link" d="M89,243.96215479031716C126,243.96215479031716 126,284.36873508353233 163,284.36873508353233L163,288.64422093419716C126,288.64422093419716 126,248.237640640982 89,248.237640640982Z" style="stroke: rgb(68, 68, 68); stroke-opacity: 1; fill: rgb(255, 161, 90); fill-opacity: 0.5; stroke-width: 0; opacity: 1;"/><path class="sankey-link" d="M89,248.237640640982C126,248.237640640982 126,322.9469826116605 163,322.9469826116605L163,326.37862257074676C126,326.37862257074676 126,251.66928060006828 89,251.66928060006828Z" style="stroke: rgb(68, 68, 68); stroke-opacity: 1; fill: rgb(255, 161, 90); fill-opacity: 0.5; stroke-width: 0; opacity: 1;"/><path class="sankey-link" d="M89,251.66928060006825C126,251.66928060006825 126,359.8375383566316 163,359.8375383566316L163,364.11302420729646C126,364.11302420729646 126,255.94476645073308 89,255.94476645073308Z" style="stroke: rgb(68, 68, 68); stroke-opacity: 1; fill: rgb(255, 161, 90); fill-opacity: 0.5; stroke-width: 0; opacity: 1;"/><path class="sankey-link" d="M89,255.94476645073306C126,255.94476645073306 126,399.48465734742604 163,399.48465734742604L163,401.3411183088989C126,401.3411183088989 126,257.80122741220595 89,257.80122741220595Z" style="stroke: rgb(68, 68, 68); stroke-opacity: 1; fill: rgb(255, 161, 90); fill-opacity: 0.5; stroke-width: 0; opacity: 1;"/><path class="sankey-link" d="M89,257.801227412206C126,257.801227412206 126,431.2558813501537 163,431.2558813501537L163,432.09972724173224C126,432.09972724173224 126,258.64507330378456 89,258.64507330378456Z" style="stroke: rgb(255, 161, 90); stroke-opacity: 0.5; fill: rgb(255, 161, 90); fill-opacity: 0.5; stroke-width: 1; opacity: 1;"/><path class="sankey-link" d="M89,268.6450733037846C126,268.6450733037846 126,51.81674053869758 163,51.81674053869758L163,52.716842823048076C126,52.716842823048076 126,269.5451755881351 89,269.5451755881351Z" style="stroke: rgb(25, 211, 243); stroke-opacity: 0.5; fill: rgb(25, 211, 243); fill-opacity: 0.5; stroke-width: 1; opacity: 1;"/><path class="sankey-link" d="M89,269.5451755881351C126,269.5451755881351 126,102.77139447664506 163,102.77139447664506L163,106.76559836345037C126,106.76559836345037 126,273.5393794749404 89,273.5393794749404Z" style="stroke: rgb(68, 68, 68); stroke-opacity: 1; fill: rgb(25, 211, 243); fill-opacity: 0.5; stroke-width: 0; opacity: 1;"/><path class="sankey-link" d="M89,273.53937947494046C126,273.53937947494046 126,156.48261166041598 163,156.48261166041598L163,159.8017388339584C126,159.8017388339584 126,276.85850664848294 89,276.85850664848294Z" style="stroke: rgb(68, 68, 68); stroke-opacity: 1; fill: rgb(25, 211, 243); fill-opacity: 0.5; stroke-width: 0; opacity: 1;"/><path class="sankey-link" d="M89,276.8585066484829C126,276.8585066484829 126,202.09290828503237 163,202.09290828503237L163,204.90572792362764C126,204.90572792362764 126,279.6713262870782 89,279.6713262870782Z" style="stroke: rgb(68, 68, 68); stroke-opacity: 1; fill: rgb(25, 211, 243); fill-opacity: 0.5; stroke-width: 0; opacity: 1;"/><path class="sankey-link" d="M89,279.67132628707816C126,279.67132628707816 126,248.15325605182417 163,248.15325605182417L163,251.247357654279C126,251.247357654279 126,282.76542788953293 89,282.76542788953293Z" style="stroke: rgb(68, 68, 68); stroke-opacity: 1; fill: rgb(25, 211, 243); fill-opacity: 0.5; stroke-width: 0; opacity: 1;"/><path class="sankey-link" d="M89,282.765427889533C126,282.765427889533 126,288.64422093419716 163,288.64422093419716L163,291.85083532219585C126,291.85083532219585 126,285.97204227753167 89,285.97204227753167Z" style="stroke: rgb(68, 68, 68); stroke-opacity: 1; fill: rgb(25, 211, 243); fill-opacity: 0.5; stroke-width: 0; opacity: 1;"/><path class="sankey-link" d="M89,285.9720422775316C126,285.9720422775316 126,326.37862257074676 163,326.37862257074676L163,329.58523695874544C126,329.58523695874544 126,289.1786566655303 89,289.1786566655303Z" style="stroke: rgb(68, 68, 68); stroke-opacity: 1; fill: rgb(25, 211, 243); fill-opacity: 0.5; stroke-width: 0; opacity: 1;"/><path class="sankey-link" d="M89,289.17865666553024C126,289.17865666553024 126,364.11302420729646 163,364.11302420729646L163,367.2633822025232C126,367.2633822025232 126,292.32901466075697 89,292.32901466075697Z" style="stroke: rgb(68, 68, 68); stroke-opacity: 1; fill: rgb(25, 211, 243); fill-opacity: 0.5; stroke-width: 0; opacity: 1;"/><path class="sankey-link" d="M89,292.32901466075697C126,292.32901466075697 126,401.34111830889896 163,401.34111830889896L163,404.1539379474943C126,404.1539379474943 126,295.1418342993523 89,295.1418342993523Z" style="stroke: rgb(68, 68, 68); stroke-opacity: 1; fill: rgb(25, 211, 243); fill-opacity: 0.5; stroke-width: 0; opacity: 1;"/><path class="sankey-link" d="M89,295.14183429935224C126,295.14183429935224 126,432.0997272417323 163,432.0997272417323L163,434.51875213092427C126,434.51875213092427 126,297.5608591885442 89,297.5608591885442Z" style="stroke: rgb(68, 68, 68); stroke-opacity: 1; fill: rgb(25, 211, 243); fill-opacity: 0.5; stroke-width: 0; opacity: 1;"/><path class="sankey-link" d="M89,307.5608591885442C126,307.5608591885442 126,52.716842823048076 163,52.716842823048076L163,53.27940675076713C126,53.27940675076713 126,308.1234231162633 89,308.1234231162633Z" style="stroke: rgb(255, 102, 146); stroke-opacity: 0.5; fill: rgb(255, 102, 146); fill-opacity: 0.5; stroke-width: 1; opacity: 1;"/><path class="sankey-link" d="M89,308.12342311626327C126,308.12342311626327 126,106.76559836345038 163,106.76559836345038L163,110.64728946471189C126,110.64728946471189 126,312.00511421752475 89,312.00511421752475Z" style="stroke: rgb(68, 68, 68); stroke-opacity: 1; fill: rgb(255, 102, 146); fill-opacity: 0.5; stroke-width: 0; opacity: 1;"/><path class="sankey-link" d="M89,312.00511421752475C126,312.00511421752475 126,159.80173883395844 163,159.80173883395844L163,162.2207637231504C126,162.2207637231504 126,314.4241391067167 89,314.4241391067167Z" style="stroke: rgb(68, 68, 68); stroke-opacity: 1; fill: rgb(255, 102, 146); fill-opacity: 0.5; stroke-width: 0; opacity: 1;"/><path class="sankey-link" d="M89,314.4241391067167C126,314.4241391067167 126,204.90572792362767 163,204.90572792362767L163,208.67490623934535C126,208.67490623934535 126,318.1933174224344 89,318.1933174224344Z" style="stroke: rgb(68, 68, 68); stroke-opacity: 1; fill: rgb(255, 102, 146); fill-opacity: 0.5; stroke-width: 0; opacity: 1;"/><path class="sankey-link" d="M89,318.1933174224344C126,318.1933174224344 126,251.247357654279 163,251.247357654279L163,254.84776679168098C126,254.84776679168098 126,321.79372655983633 89,321.79372655983633Z" style="stroke: rgb(68, 68, 68); stroke-opacity: 1; fill: rgb(255, 102, 146); fill-opacity: 0.5; stroke-width: 0; opacity: 1;"/><path class="sankey-link" d="M89,321.7937265598364C126,321.7937265598364 126,291.8508353221958 163,291.8508353221958L163,295.8450392090011C126,295.8450392090011 126,325.78793044664167 89,325.78793044664167Z" style="stroke: rgb(68, 68, 68); stroke-opacity: 1; fill: rgb(255, 102, 146); fill-opacity: 0.5; stroke-width: 0; opacity: 1;"/><path class="sankey-link" d="M89,325.7879304466417C126,325.7879304466417 126,329.5852369587454 163,329.5852369587454L163,333.0731333106035C126,333.0731333106035 126,329.27582679849985 89,329.27582679849985Z" style="stroke: rgb(68, 68, 68); stroke-opacity: 1; fill: rgb(255, 102, 146); fill-opacity: 0.5; stroke-width: 0; opacity: 1;"/><path class="sankey-link" d="M89,329.2758267984999C126,329.2758267984999 126,367.2633822025232 163,367.2633822025232L163,374.7454824411867C126,374.7454824411867 126,336.7579270371634 89,336.7579270371634Z" style="stroke: rgb(68, 68, 68); stroke-opacity: 1; fill: rgb(255, 102, 146); fill-opacity: 0.5; stroke-width: 0; opacity: 1;"/><path class="sankey-link" d="M89,336.75792703716337C126,336.75792703716337 126,404.1539379474942 163,404.1539379474942L163,406.1229116945109C126,406.1229116945109 126,338.72690078418003 89,338.72690078418003Z" style="stroke: rgb(68, 68, 68); stroke-opacity: 1; fill: rgb(255, 102, 146); fill-opacity: 0.5; stroke-width: 0; opacity: 1;"/><path class="sankey-link" d="M89,338.7269007841801C126,338.7269007841801 126,434.51875213092427 163,434.51875213092427L163,436.7690078418005C126,436.7690078418005 126,340.9771564950563 89,340.9771564950563Z" style="stroke: rgb(68, 68, 68); stroke-opacity: 1; fill: rgb(255, 102, 146); fill-opacity: 0.5; stroke-width: 0; opacity: 1;"/><path class="sankey-link" d="M89,350.9771564950561C126,350.9771564950561 126,53.27940675076714 163,53.27940675076714L163,53.61694510739858C126,53.61694510739858 126,351.3146948516875 89,351.3146948516875Z" style="stroke: rgb(182, 232, 128); stroke-opacity: 0.5; fill: rgb(182, 232, 128); fill-opacity: 0.5; stroke-width: 1; opacity: 1;"/><path class="sankey-link" d="M89,351.31469485168753C126,351.31469485168753 126,110.64728946471189 163,110.64728946471189L163,113.40385271053529C126,113.40385271053529 126,354.0712580975109 89,354.0712580975109Z" style="stroke: rgb(68, 68, 68); stroke-opacity: 1; fill: rgb(182, 232, 128); fill-opacity: 0.5; stroke-width: 0; opacity: 1;"/><path class="sankey-link" d="M89,354.0712580975109C126,354.0712580975109 126,162.22076372315038 163,162.22076372315038L163,164.63978861234236C126,164.63978861234236 126,356.4902829867029 89,356.4902829867029Z" style="stroke: rgb(68, 68, 68); stroke-opacity: 1; fill: rgb(182, 232, 128); fill-opacity: 0.5; stroke-width: 0; opacity: 1;"/><path class="sankey-link" d="M89,356.4902829867029C126,356.4902829867029 126,208.67490623934535 163,208.67490623934535L163,211.26270030685302C126,211.26270030685302 126,359.0780770542105 89,359.0780770542105Z" style="stroke: rgb(68, 68, 68); stroke-opacity: 1; fill: rgb(182, 232, 128); fill-opacity: 0.5; stroke-width: 0; opacity: 1;"/><path class="sankey-link" d="M89,359.07807705421055C126,359.07807705421055 126,254.84776679168098 163,254.84776679168098L163,257.0980225025572C126,257.0980225025572 126,361.32833276508677 89,361.32833276508677Z" style="stroke: rgb(68, 68, 68); stroke-opacity: 1; fill: rgb(182, 232, 128); fill-opacity: 0.5; stroke-width: 0; opacity: 1;"/><path class="sankey-link" d="M89,361.32833276508677C126,361.32833276508677 126,295.84503920900113 163,295.84503920900113L163,299.8392430958064C126,299.8392430958064 126,365.32253665189205 89,365.32253665189205Z" style="stroke: rgb(68, 68, 68); stroke-opacity: 1; fill: rgb(182, 232, 128); fill-opacity: 0.5; stroke-width: 0; opacity: 1;"/><path class="sankey-link" d="M89,365.3225366518921C126,365.3225366518921 126,333.07313331060357 163,333.07313331060357L163,336.50477326968985C126,336.50477326968985 126,368.7541766109784 89,368.7541766109784Z" style="stroke: rgb(68, 68, 68); stroke-opacity: 1; fill: rgb(182, 232, 128); fill-opacity: 0.5; stroke-width: 0; opacity: 1;"/><path class="sankey-link" d="M89,368.7541766109784C126,368.7541766109784 126,374.74548244118665 163,374.74548244118665L163,377.33327650869427C126,377.33327650869427 126,371.341970678486 89,371.341970678486Z" style="stroke: rgb(68, 68, 68); stroke-opacity: 1; fill: rgb(182, 232, 128); fill-opacity: 0.5; stroke-width: 0; opacity: 1;"/><path class="sankey-link" d="M89,371.34197067848606C126,371.34197067848606 126,406.12291169451095 163,406.12291169451095L163,410.45465393794774C126,410.45465393794774 126,375.67371292192286 89,375.67371292192286Z" style="stroke: rgb(68, 68, 68); stroke-opacity: 1; fill: rgb(182, 232, 128); fill-opacity: 0.5; stroke-width: 0; opacity: 1;"/><path class="sankey-link" d="M89,375.6737129219228C126,375.6737129219228 126,436.7690078418005 163,436.7690078418005L163,440.3694169792024C126,440.3694169792024 126,379.2741220593247 89,379.2741220593247Z" style="stroke: rgb(68, 68, 68); stroke-opacity: 1; fill: rgb(182, 232, 128); fill-opacity: 0.5; stroke-width: 0; opacity: 1;"/><path class="sankey-link" d="M89,389.27412205932467C126,389.27412205932467 126,53.61694510739857 163,53.61694510739857L163,54.06699624957381C126,54.06699624957381 126,389.72417320149987 89,389.72417320149987Z" style="stroke: rgb(255, 151, 255); stroke-opacity: 0.5; fill: rgb(255, 151, 255); fill-opacity: 0.5; stroke-width: 1; opacity: 1;"/><path class="sankey-link" d="M89,389.7241732014999C126,389.7241732014999 126,113.40385271053528 163,113.40385271053528L163,115.93539038527105C126,115.93539038527105 126,392.2557108762357 89,392.2557108762357Z" style="stroke: rgb(68, 68, 68); stroke-opacity: 1; fill: rgb(255, 151, 255); fill-opacity: 0.5; stroke-width: 0; opacity: 1;"/><path class="sankey-link" d="M89,392.2557108762357C126,392.2557108762357 126,164.63978861234233 163,164.63978861234233L163,166.1587112171838C126,166.1587112171838 126,393.77463348107716 89,393.77463348107716Z" style="stroke: rgb(68, 68, 68); stroke-opacity: 1; fill: rgb(255, 151, 255); fill-opacity: 0.5; stroke-width: 0; opacity: 1;"/><path class="sankey-link" d="M89,393.77463348107716C126,393.77463348107716 126,211.26270030685302 163,211.26270030685302L163,212.83787930446638C126,212.83787930446638 126,395.3498124786906 89,395.3498124786906Z" style="stroke: rgb(68, 68, 68); stroke-opacity: 1; fill: rgb(255, 151, 255); fill-opacity: 0.5; stroke-width: 0; opacity: 1;"/><path class="sankey-link" d="M89,395.3498124786905C126,395.3498124786905 126,257.0980225025572 163,257.0980225025572L163,259.23576542788965C126,259.23576542788965 126,397.48755540402294 89,397.48755540402294Z" style="stroke: rgb(68, 68, 68); stroke-opacity: 1; fill: rgb(255, 151, 255); fill-opacity: 0.5; stroke-width: 0; opacity: 1;"/><path class="sankey-link" d="M89,397.48755540402294C126,397.48755540402294 126,299.83924309580647 163,299.83924309580647L163,301.69570405727933C126,301.69570405727933 126,399.3440163654958 89,399.3440163654958Z" style="stroke: rgb(68, 68, 68); stroke-opacity: 1; fill: rgb(255, 151, 255); fill-opacity: 0.5; stroke-width: 0; opacity: 1;"/><path class="sankey-link" d="M89,399.34401636549586C126,399.34401636549586 126,336.50477326968985 163,336.50477326968985L163,339.2050801227414C126,339.2050801227414 126,402.0443232185474 89,402.0443232185474Z" style="stroke: rgb(68, 68, 68); stroke-opacity: 1; fill: rgb(255, 151, 255); fill-opacity: 0.5; stroke-width: 0; opacity: 1;"/><path class="sankey-link" d="M89,402.04432321854733C126,402.04432321854733 126,377.3332765086943 163,377.3332765086943L163,380.539890896693C126,380.539890896693 126,405.250937606546 89,405.250937606546Z" style="stroke: rgb(68, 68, 68); stroke-opacity: 1; fill: rgb(255, 151, 255); fill-opacity: 0.5; stroke-width: 0; opacity: 1;"/><path class="sankey-link" d="M89,405.25093760654596C126,405.25093760654596 126,410.4546539379477 163,410.4546539379477L163,413.99880668257777C126,413.99880668257777 126,408.79509035117604 89,408.79509035117604Z" style="stroke: rgb(68, 68, 68); stroke-opacity: 1; fill: rgb(255, 151, 255); fill-opacity: 0.5; stroke-width: 0; opacity: 1;"/><path class="sankey-link" d="M89,408.79509035117604C126,408.79509035117604 126,440.36941697920247 163,440.36941697920247L163,444.70115922263926C126,444.70115922263926 126,413.12683259461284 89,413.12683259461284Z" style="stroke: rgb(68, 68, 68); stroke-opacity: 1; fill: rgb(255, 151, 255); fill-opacity: 0.5; stroke-width: 0; opacity: 1;"/><path class="sankey-link" d="M89,423.1268325946128C126,423.1268325946128 126,54.06699624957382 163,54.06699624957382L163,54.573303784520974C126,54.573303784520974 126,423.63314012955993 89,423.63314012955993Z" style="stroke: rgb(254, 203, 82); stroke-opacity: 0.5; fill: rgb(254, 203, 82); fill-opacity: 0.5; stroke-width: 1; opacity: 1;"/><path class="sankey-link" d="M89,423.63314012955993C126,423.63314012955993 126,115.93539038527103 163,115.93539038527103L163,118.52318445277871C126,118.52318445277871 126,426.22093419706755 89,426.22093419706755Z" style="stroke: rgb(68, 68, 68); stroke-opacity: 1; fill: rgb(254, 203, 82); fill-opacity: 0.5; stroke-width: 0; opacity: 1;"/><path class="sankey-link" d="M89,426.2209341970676C126,426.2209341970676 126,166.1587112171838 163,166.1587112171838L163,167.84640300034096C126,167.84640300034096 126,427.9086259802248 89,427.9086259802248Z" style="stroke: rgb(68, 68, 68); stroke-opacity: 1; fill: rgb(254, 203, 82); fill-opacity: 0.5; stroke-width: 0; opacity: 1;"/><path class="sankey-link" d="M89,427.90862598022477C126,427.90862598022477 126,212.83787930446638 163,212.83787930446638L163,214.63808387316735C126,214.63808387316735 126,429.7088305489258 89,429.7088305489258Z" style="stroke: rgb(68, 68, 68); stroke-opacity: 1; fill: rgb(254, 203, 82); fill-opacity: 0.5; stroke-width: 0; opacity: 1;"/><path class="sankey-link" d="M89,429.70883054892573C126,429.70883054892573 126,259.23576542788965 163,259.23576542788965L163,261.429764745994C126,261.429764745994 126,431.9028298670301 89,431.9028298670301Z" style="stroke: rgb(68, 68, 68); stroke-opacity: 1; fill: rgb(254, 203, 82); fill-opacity: 0.5; stroke-width: 0; opacity: 1;"/><path class="sankey-link" d="M89,431.90282986703005C126,431.90282986703005 126,301.6957040572794 163,301.6957040572794L163,303.66467780429605C126,303.66467780429605 126,433.8718036140467 89,433.8718036140467Z" style="stroke: rgb(68, 68, 68); stroke-opacity: 1; fill: rgb(254, 203, 82); fill-opacity: 0.5; stroke-width: 0; opacity: 1;"/><path class="sankey-link" d="M89,433.87180361404677C126,433.87180361404677 126,339.2050801227413 163,339.2050801227413L163,342.24292533242425C126,342.24292533242425 126,436.9096488237297 89,436.9096488237297Z" style="stroke: rgb(68, 68, 68); stroke-opacity: 1; fill: rgb(254, 203, 82); fill-opacity: 0.5; stroke-width: 0; opacity: 1;"/><path class="sankey-link" d="M89,436.9096488237297C126,436.9096488237297 126,380.53989089669295 163,380.53989089669295L163,383.12768496420057C126,383.12768496420057 126,439.4974428912373 89,439.4974428912373Z" style="stroke: rgb(68, 68, 68); stroke-opacity: 1; fill: rgb(254, 203, 82); fill-opacity: 0.5; stroke-width: 0; opacity: 1;"/><path class="sankey-link" d="M89,439.49744289123737C126,439.49744289123737 126,413.99880668257777 163,413.99880668257777L163,417.1491646778045C126,417.1491646778045 126,442.6478008864641 89,442.6478008864641Z" style="stroke: rgb(68, 68, 68); stroke-opacity: 1; fill: rgb(254, 203, 82); fill-opacity: 0.5; stroke-width: 0; opacity: 1;"/><path class="sankey-link" d="M89,442.6478008864641C126,442.6478008864641 126,444.7011592226392 163,444.7011592226392L163,449.42669621547935C126,449.42669621547935 126,447.37333787930424 89,447.37333787930424Z" style="stroke: rgb(68, 68, 68); stroke-opacity: 1; fill: rgb(254, 203, 82); fill-opacity: 0.5; stroke-width: 0; opacity: 1;"/></g><g class="sankey-node-set" style="cursor: move;"><g class="sankey-node" transform="translate(79.000,27.373)" style="opacity: 1;"><rect class="node-rect" width="10" height="29.253324241391052" style="stroke-width: 0.5; stroke: rgb(68, 68, 68); stroke-opacity: 1; fill: rgb(99, 110, 250); fill-opacity: 1;"/><text class="node-label" data-notex="1" x="0" y="0" text-anchor="start" transform="translate(13.25,14.976662120695526)" style="cursor: default; font-family: Arial; font-size: 1px; fill: rgb(0, 0, 0); fill-opacity: 0; white-space: pre; text-shadow: rgba(0, 0, 0, 0) 1px 1px 1px, rgba(0, 0, 0, 0) -1px -1px 1px, rgba(0, 0, 0, 0) 1px -1px 1px, rgba(0, 0, 0, 0) -1px 1px 1px;">HSV 100_90</text></g><g class="sankey-node" transform="translate(163.000,29.427)" style="opacity: 1;"><rect class="node-rect" width="10" height="25.146607569041933" style="stroke-width: 0.5; stroke: rgb(68, 68, 68); stroke-opacity: 1; fill: rgb(99, 110, 250); fill-opacity: 1;"/><text class="node-label" data-notex="1" x="0" y="0" text-anchor="end" transform="translate(-3.25,12.923303784520966)" style="cursor: default; font-family: Arial; font-size: 1px; fill: rgb(0, 0, 0); fill-opacity: 0; white-space: pre; text-shadow: rgba(0, 0, 0, 0) 1px 1px 1px, rgba(0, 0, 0, 0) -1px -1px 1px, rgba(0, 0, 0, 0) 1px -1px 1px, rgba(0, 0, 0, 0) -1px 1px 1px;">HPV 100_90</text></g><g class="sankey-node" transform="translate(79.000,66.627)" style="opacity: 1;"><rect class="node-rect" width="10" height="53.499829526082465" style="stroke-width: 0.5; stroke: rgb(68, 68, 68); stroke-opacity: 1; fill: rgb(239, 85, 59); fill-opacity: 1;"/><text class="node-label" data-notex="1" x="0" y="0" text-anchor="start" transform="translate(13.25,27.099914763041234)" style="cursor: default; font-family: Arial; font-size: 1px; fill: rgb(0, 0, 0); fill-opacity: 0; white-space: pre; text-shadow: rgba(0, 0, 0, 0) 1px 1px 1px, rgba(0, 0, 0, 0) -1px -1px 1px, rgba(0, 0, 0, 0) 1px -1px 1px, rgba(0, 0, 0, 0) -1px 1px 1px;">HSV 90_80</text></g><g class="sankey-node" transform="translate(163.000,64.573)" style="opacity: 1;"><rect class="node-rect" width="10" height="53.949880668257805" style="stroke-width: 0.5; stroke: rgb(68, 68, 68); stroke-opacity: 1; fill: rgb(239, 85, 59); fill-opacity: 1;"/><text class="node-label" data-notex="1" x="0" y="0" text-anchor="end" transform="translate(-3.25,27.324940334128904)" style="cursor: default; font-family: Arial; font-size: 1px; fill: rgb(0, 0, 0); fill-opacity: 0; white-space: pre; text-shadow: rgba(0, 0, 0, 0) 1px 1px 1px, rgba(0, 0, 0, 0) -1px -1px 1px, rgba(0, 0, 0, 0) 1px -1px 1px, rgba(0, 0, 0, 0) -1px 1px 1px;">HPV 90_80</text></g><g class="sankey-node" transform="translate(79.000,130.126)" style="opacity: 1;"><rect class="node-rect" width="10" height="37.973065121036484" style="stroke-width: 0.5; stroke: rgb(68, 68, 68); stroke-opacity: 1; fill: rgb(0, 204, 150); fill-opacity: 1;"/><text class="node-label" data-notex="1" x="0" y="0" text-anchor="start" transform="translate(13.25,19.336532560518243)" style="cursor: default; font-family: Arial; font-size: 1px; fill: rgb(0, 0, 0); fill-opacity: 0; white-space: pre; text-shadow: rgba(0, 0, 0, 0) 1px 1px 1px, rgba(0, 0, 0, 0) -1px -1px 1px, rgba(0, 0, 0, 0) 1px -1px 1px, rgba(0, 0, 0, 0) -1px 1px 1px;">HSV 80_70</text></g><g class="sankey-node" transform="translate(163.000,128.523)" style="opacity: 1;"><rect class="node-rect" width="10" height="39.32321854756219" style="stroke-width: 0.5; stroke: rgb(68, 68, 68); stroke-opacity: 1; fill: rgb(0, 204, 150); fill-opacity: 1;"/><text class="node-label" data-notex="1" x="0" y="0" text-anchor="end" transform="translate(-3.25,20.011609273781097)" style="cursor: default; font-family: Arial; font-size: 1px; fill: rgb(0, 0, 0); fill-opacity: 0; white-space: pre; text-shadow: rgba(0, 0, 0, 0) 1px 1px 1px, rgba(0, 0, 0, 0) -1px -1px 1px, rgba(0, 0, 0, 0) 1px -1px 1px, rgba(0, 0, 0, 0) -1px 1px 1px;">HPV 80_70</text></g><g class="sankey-node" transform="translate(79.000,178.100)" style="opacity: 1;"><rect class="node-rect" width="10" height="35.272758267985125" style="stroke-width: 0.5; stroke: rgb(68, 68, 68); stroke-opacity: 1; fill: rgb(171, 99, 250); fill-opacity: 1;"/><text class="node-label" data-notex="1" x="0" y="0" text-anchor="start" transform="translate(13.25,17.986379133992564)" style="cursor: default; font-family: Arial; font-size: 1px; fill: rgb(0, 0, 0); fill-opacity: 0; white-space: pre; text-shadow: rgba(0, 0, 0, 0) 1px 1px 1px, rgba(0, 0, 0, 0) -1px -1px 1px, rgba(0, 0, 0, 0) 1px -1px 1px, rgba(0, 0, 0, 0) -1px 1px 1px;">HSV 70_60</text></g><g class="sankey-node" transform="translate(163.000,177.846)" style="opacity: 1;"><rect class="node-rect" width="10" height="36.79168087282653" style="stroke-width: 0.5; stroke: rgb(68, 68, 68); stroke-opacity: 1; fill: rgb(171, 99, 250); fill-opacity: 1;"/><text class="node-label" data-notex="1" x="0" y="0" text-anchor="end" transform="translate(-3.25,18.745840436413268)" style="cursor: default; font-family: Arial; font-size: 1px; fill: rgb(0, 0, 0); fill-opacity: 0; white-space: pre; text-shadow: rgba(0, 0, 0, 0) 1px 1px 1px, rgba(0, 0, 0, 0) -1px -1px 1px, rgba(0, 0, 0, 0) 1px -1px 1px, rgba(0, 0, 0, 0) -1px 1px 1px;">HPV 70_60</text></g><g class="sankey-node" transform="translate(79.000,223.372)" style="opacity: 1;"><rect class="node-rect" width="10" height="35.27275826798501" style="stroke-width: 0.5; stroke: rgb(68, 68, 68); stroke-opacity: 1; fill: rgb(255, 161, 90); fill-opacity: 1;"/><text class="node-label" data-notex="1" x="0" y="0" text-anchor="start" transform="translate(13.25,17.986379133992507)" style="cursor: default; font-family: Arial; font-size: 1px; fill: rgb(0, 0, 0); fill-opacity: 0; white-space: pre; text-shadow: rgba(0, 0, 0, 0) 1px 1px 1px, rgba(0, 0, 0, 0) -1px -1px 1px, rgba(0, 0, 0, 0) 1px -1px 1px, rgba(0, 0, 0, 0) -1px 1px 1px;">HSV 60_50</text></g><g class="sankey-node" transform="translate(163.000,224.638)" style="opacity: 1;"><rect class="node-rect" width="10" height="36.791680872826475" style="stroke-width: 0.5; stroke: rgb(68, 68, 68); stroke-opacity: 1; fill: rgb(255, 161, 90); fill-opacity: 1;"/><text class="node-label" data-notex="1" x="0" y="0" text-anchor="end" transform="translate(-3.25,18.74584043641324)" style="cursor: default; font-family: Arial; font-size: 1px; fill: rgb(0, 0, 0); fill-opacity: 0; white-space: pre; text-shadow: rgba(0, 0, 0, 0) 1px 1px 1px, rgba(0, 0, 0, 0) -1px -1px 1px, rgba(0, 0, 0, 0) 1px -1px 1px, rgba(0, 0, 0, 0) -1px 1px 1px;">HPV 60_50</text></g><g class="sankey-node" transform="translate(79.000,268.645)" style="opacity: 1;"><rect class="node-rect" width="10" height="28.9157858847596" style="stroke-width: 0.5; stroke: rgb(68, 68, 68); stroke-opacity: 1; fill: rgb(25, 211, 243); fill-opacity: 1;"/><text class="node-label" data-notex="1" x="0" y="0" text-anchor="start" transform="translate(13.25,14.8078929423798)" style="cursor: default; font-family: Arial; font-size: 1px; fill: rgb(0, 0, 0); fill-opacity: 0; white-space: pre; text-shadow: rgba(0, 0, 0, 0) 1px 1px 1px, rgba(0, 0, 0, 0) -1px -1px 1px, rgba(0, 0, 0, 0) 1px -1px 1px, rgba(0, 0, 0, 0) -1px 1px 1px;">HSV 50_40</text></g><g class="sankey-node" transform="translate(163.000,271.430)" style="opacity: 1;"><rect class="node-rect" width="10" height="32.23491305830203" style="stroke-width: 0.5; stroke: rgb(68, 68, 68); stroke-opacity: 1; fill: rgb(25, 211, 243); fill-opacity: 1;"/><text class="node-label" data-notex="1" x="0" y="0" text-anchor="end" transform="translate(-3.25,16.467456529151015)" style="cursor: default; font-family: Arial; font-size: 1px; fill: rgb(0, 0, 0); fill-opacity: 0; white-space: pre; text-shadow: rgba(0, 0, 0, 0) 1px 1px 1px, rgba(0, 0, 0, 0) -1px -1px 1px, rgba(0, 0, 0, 0) 1px -1px 1px, rgba(0, 0, 0, 0) -1px 1px 1px;">HPV 50_40</text></g><g class="sankey-node" transform="translate(79.000,307.561)" style="opacity: 1;"><rect class="node-rect" width="10" height="33.416297306511865" style="stroke-width: 0.5; stroke: rgb(68, 68, 68); stroke-opacity: 1; fill: rgb(255, 102, 146); fill-opacity: 1;"/><text class="node-label" data-notex="1" x="0" y="0" text-anchor="start" transform="translate(13.25,17.058148653255934)" style="cursor: default; font-family: Arial; font-size: 1px; fill: rgb(0, 0, 0); fill-opacity: 0; white-space: pre; text-shadow: rgba(0, 0, 0, 0) 1px 1px 1px, rgba(0, 0, 0, 0) -1px -1px 1px, rgba(0, 0, 0, 0) 1px -1px 1px, rgba(0, 0, 0, 0) -1px 1px 1px;">HSV 40_30</text></g><g class="sankey-node" transform="translate(163.000,313.665)" style="opacity: 1;"><rect class="node-rect" width="10" height="28.578247528128372" style="stroke-width: 0.5; stroke: rgb(68, 68, 68); stroke-opacity: 1; fill: rgb(255, 102, 146); fill-opacity: 1;"/><text class="node-label" data-notex="1" x="0" y="0" text-anchor="end" transform="translate(-3.25,14.639123764064186)" style="cursor: default; font-family: Arial; font-size: 1px; fill: rgb(0, 0, 0); fill-opacity: 0; white-space: pre; text-shadow: rgba(0, 0, 0, 0) 1px 1px 1px, rgba(0, 0, 0, 0) -1px -1px 1px, rgba(0, 0, 0, 0) 1px -1px 1px, rgba(0, 0, 0, 0) -1px 1px 1px;">HPV 40_30</text></g><g class="sankey-node" transform="translate(79.000,350.977)" style="opacity: 1;"><rect class="node-rect" width="10" height="28.29696556426859" style="stroke-width: 0.5; stroke: rgb(68, 68, 68); stroke-opacity: 1; fill: rgb(182, 232, 128); fill-opacity: 1;"/><text class="node-label" data-notex="1" x="0" y="0" text-anchor="start" transform="translate(13.25,14.498482782134294)" style="cursor: default; font-family: Arial; font-size: 1px; fill: rgb(0, 0, 0); fill-opacity: 0; white-space: pre; text-shadow: rgba(0, 0, 0, 0) 1px 1px 1px, rgba(0, 0, 0, 0) -1px -1px 1px, rgba(0, 0, 0, 0) 1px -1px 1px, rgba(0, 0, 0, 0) -1px 1px 1px;">HSV 30_20</text></g><g class="sankey-node" transform="translate(163.000,352.243)" style="opacity: 1;"><rect class="node-rect" width="10" height="30.88475963177632" style="stroke-width: 0.5; stroke: rgb(68, 68, 68); stroke-opacity: 1; fill: rgb(182, 232, 128); fill-opacity: 1;"/><text class="node-label" data-notex="1" x="0" y="0" text-anchor="end" transform="translate(-3.25,15.79237981588816)" style="cursor: default; font-family: Arial; font-size: 1px; fill: rgb(0, 0, 0); fill-opacity: 0; white-space: pre; text-shadow: rgba(0, 0, 0, 0) 1px 1px 1px, rgba(0, 0, 0, 0) -1px -1px 1px, rgba(0, 0, 0, 0) 1px -1px 1px, rgba(0, 0, 0, 0) -1px 1px 1px;">HPV 30_20</text></g><g class="sankey-node" transform="translate(79.000,389.274)" style="opacity: 1;"><rect class="node-rect" width="10" height="23.85271053528811" style="stroke-width: 0.5; stroke: rgb(68, 68, 68); stroke-opacity: 1; fill: rgb(255, 151, 255); fill-opacity: 1;"/><text class="node-label" data-notex="1" x="0" y="0" text-anchor="start" transform="translate(13.25,12.276355267644055)" style="cursor: default; font-family: Arial; font-size: 1px; fill: rgb(0, 0, 0); fill-opacity: 0; white-space: pre; text-shadow: rgba(0, 0, 0, 0) 1px 1px 1px, rgba(0, 0, 0, 0) -1px -1px 1px, rgba(0, 0, 0, 0) 1px -1px 1px, rgba(0, 0, 0, 0) -1px 1px 1px;">HSV 20_10</text></g><g class="sankey-node" transform="translate(163.000,393.128)" style="opacity: 1;"><rect class="node-rect" width="10" height="24.021479713603867" style="stroke-width: 0.5; stroke: rgb(68, 68, 68); stroke-opacity: 1; fill: rgb(255, 151, 255); fill-opacity: 1;"/><text class="node-label" data-notex="1" x="0" y="0" text-anchor="end" transform="translate(-3.25,12.360739856801933)" style="cursor: default; font-family: Arial; font-size: 1px; fill: rgb(0, 0, 0); fill-opacity: 0; white-space: pre; text-shadow: rgba(0, 0, 0, 0) 1px 1px 1px, rgba(0, 0, 0, 0) -1px -1px 1px, rgba(0, 0, 0, 0) 1px -1px 1px, rgba(0, 0, 0, 0) -1px 1px 1px;">HPV 20_10</text></g><g class="sankey-node" transform="translate(79.000,423.127)" style="opacity: 1;"><rect class="node-rect" width="10" height="24.246505284691466" style="stroke-width: 0.5; stroke: rgb(68, 68, 68); stroke-opacity: 1; fill: rgb(254, 203, 82); fill-opacity: 1;"/><text class="node-label" data-notex="1" x="0" y="0" text-anchor="start" transform="translate(13.25,12.473252642345733)" style="cursor: default; font-family: Arial; font-size: 1px; fill: rgb(0, 0, 0); fill-opacity: 0; white-space: pre; text-shadow: rgba(0, 0, 0, 0) 1px 1px 1px, rgba(0, 0, 0, 0) -1px -1px 1px, rgba(0, 0, 0, 0) 1px -1px 1px, rgba(0, 0, 0, 0) -1px 1px 1px;">HSV 10_0</text></g><g class="sankey-node" transform="translate(163.000,427.149)" style="opacity: 1;"><rect class="node-rect" width="10" height="22.277531537674577" style="stroke-width: 0.5; stroke: rgb(68, 68, 68); stroke-opacity: 1; fill: rgb(254, 203, 82); fill-opacity: 1;"/><text class="node-label" data-notex="1" x="0" y="0" text-anchor="end" transform="translate(-3.25,11.488765768837288)" style="cursor: default; font-family: Arial; font-size: 1px; fill: rgb(0, 0, 0); fill-opacity: 0; white-space: pre; text-shadow: rgba(0, 0, 0, 0) 1px 1px 1px, rgba(0, 0, 0, 0) -1px -1px 1px, rgba(0, 0, 0, 0) 1px -1px 1px, rgba(0, 0, 0, 0) -1px 1px 1px;">HPV 10_0</text></g></g></g><defs id="topdefs-496dc2"><g class="clips"/></defs><g class="layer-above"><g class="imagelayer"/><g class="shapelayer"/></g><g class="infolayer"><g class="g-gtitle"><text class="gtitle" x="50" y="50" text-anchor="start" dy="0em" style="font-family: Arial; font-size: 17px; fill: rgb(0, 0, 0); opacity: 1; font-weight: normal; white-space: pre;">HSV PPI vs HPV PPI</text></g><g class="first-render"/></g></svg>